<svg xmlns="http://www.w3.org/2000/svg" xmlns:v="https://svgstorm.com"
viewBox = "0 0 1024 1024"
width="1024"
height="1024">
<g fill="None" fill-opacity="0.0" stroke="#000000" stroke-opacity="0.00" stroke-width="0.3"><path d="
M 0.00 1024.00 
L 1024.00 1024.00
L 1024.00 0.00
L 0.00 0.00
L 0.00 1024.00
M 304.00 272.00 
C 299.86 264.37 290.40 259.04 291.01 246.99 C 291.61 234.95 290.49 218.31 291.00 206.00 C 291.51 193.69 290.12 176.91 291.33 165.33 C 292.54 153.75 300.86 146.73 311.07 144.07 C 321.29 141.42 332.84 145.33 338.77 155.23 C 344.70 165.13 342.79 179.73 343.00 192.00 C 343.21 204.27 342.71 220.65 343.00 233.00 C 343.29 245.35 343.63 257.07 335.25 266.25 C 326.87 275.42 314.11 272.59 304.00 272.00
M 601.00 250.00 
C 601.10 249.52 601.00 249.00 601.00 249.00
C 596.69 243.17 601.58 230.23 600.00 223.00 C 598.42 215.77 600.56 206.00 601.00 199.00
C 600.43 187.58 599.13 176.73 601.00 165.00
C 603.93 146.59 626.52 135.62 642.25 148.75 C 657.98 161.89 651.19 189.74 652.00 209.00 C 652.81 228.26 655.88 255.22 641.75 268.75 C 627.62 282.28 597.61 266.38 601.00 250.00
M 356.00 252.00 
C 356.02 251.50 356.00 251.00 356.00 251.00
C 356.00 243.38 355.57 233.38 356.00 226.00 C 356.43 218.62 353.14 207.28 360.00 207.00
C 436.22 203.93 512.66 209.24 588.00 207.00
C 585.80 229.85 582.61 263.39 603.23 277.77 C 623.85 292.15 647.70 284.14 661.00 265.00
C 663.67 259.95 664.78 253.82 665.00 248.00
C 665.52 234.29 665.29 219.72 664.00 207.00
C 665.16 207.79 666.53 205.04 667.00 207.00
C 678.15 204.27 692.95 208.20 705.00 207.00 C 717.05 205.81 732.61 207.06 744.00 208.00 C 755.40 208.93 762.62 217.84 773.00 218.00
C 771.87 222.29 780.70 226.62 784.77 232.23 C 788.84 237.84 793.32 244.14 796.32 250.68 C 799.32 257.22 800.67 268.39 805.00 272.00
C 800.95 285.46 803.54 301.70 803.00 317.00 C 802.46 332.30 803.32 349.60 803.00 365.00 C 802.68 380.40 803.31 396.33 803.00 411.00
C 798.20 408.71 790.73 404.40 788.00 408.00
C 786.91 403.27 779.29 403.52 773.98 402.02 C 768.66 400.53 761.03 401.52 756.00 400.00
C 751.30 399.69 745.55 401.13 741.00 400.00
C 736.22 398.81 740.43 383.34 739.00 378.00
C 735.41 374.98 724.09 380.35 718.78 378.22 C 713.47 376.09 706.49 379.87 700.97 378.02 C 695.45 376.17 688.04 380.43 682.00 379.00 C 675.96 377.57 670.16 379.03 663.78 378.78 C 657.40 378.53 647.41 377.38 641.00 378.00 C 634.59 378.62 628.76 377.93 622.75 378.20 C 616.75 378.46 610.99 378.24 604.97 378.02 C 598.96 377.80 591.84 379.03 586.77 378.21 C 581.70 377.40 577.43 380.19 572.00 379.00 C 566.57 377.81 560.29 379.27 554.00 379.00 C 547.71 378.73 542.41 378.14 535.75 378.80 C 529.10 379.46 522.19 377.79 515.00 378.00 C 507.80 378.21 502.34 379.23 494.92 378.94 C 487.50 378.64 482.73 378.75 475.00 379.00 C 467.27 379.25 464.20 378.58 455.25 378.61 C 446.30 378.63 432.24 378.58 422.92 378.93 C 413.60 379.28 413.08 378.81 405.00 379.00 C 396.92 379.19 393.46 378.49 385.98 378.02 C 378.49 377.56 374.64 379.65 366.92 378.94 C 359.20 378.22 358.50 379.45 348.99 378.99 C 339.48 378.53 326.71 378.41 316.99 378.99 C 307.27 379.58 305.10 378.35 297.25 378.61 C 289.39 378.86 285.64 378.44 278.00 379.00
C 273.44 379.34 270.72 378.46 267.00 378.00
C 261.90 378.29 255.83 377.72 250.00 378.00 C 244.16 378.28 235.59 377.71 229.98 378.98 C 224.36 380.24 214.66 374.34 210.00 379.00
C 208.00 381.76 210.94 393.85 210.00 401.00 C 209.06 408.15 210.42 418.98 210.00 427.00 C 209.58 435.02 210.18 444.53 210.00 453.00 C 209.82 461.47 210.09 471.35 210.00 480.00 C 209.91 488.65 210.04 497.30 210.00 506.00 C 209.96 514.70 210.02 523.23 210.00 532.00 C 209.98 540.77 210.01 550.22 210.00 559.00 C 209.99 567.78 210.02 576.24 210.00 585.00 C 209.98 593.76 210.04 602.21 210.00 611.00 C 209.96 619.79 210.07 629.20 210.00 638.00 C 209.93 646.80 210.17 655.23 210.00 664.00 C 209.83 672.77 210.37 681.20 210.00 690.00 C 209.63 698.80 210.80 708.20 210.00 717.00
C 210.95 725.25 217.81 731.91 226.00 733.00
C 228.88 733.38 232.09 733.00 235.00 733.00
C 241.60 733.00 248.43 732.48 255.00 733.00
C 287.46 735.58 317.88 731.37 351.00 734.00
C 353.70 733.95 360.82 731.77 364.00 733.00 C 367.18 734.23 376.58 730.71 378.00 734.00
C 378.65 735.51 377.33 736.72 377.00 738.00
C 375.65 743.23 373.93 751.74 374.00 757.00 C 374.08 762.27 372.55 770.15 376.00 771.00
C 368.52 777.86 383.22 801.12 367.00 798.00
C 371.01 795.33 363.93 795.26 365.00 799.00
C 358.21 793.87 347.18 796.24 338.00 796.00 C 328.82 795.76 317.43 795.35 309.00 797.00
C 314.65 797.34 320.35 796.75 326.00 797.00
C 317.89 799.54 308.97 797.41 300.00 798.00
C 301.14 796.13 304.13 797.39 306.00 797.00
C 286.51 795.54 265.23 796.01 245.00 796.00
C 253.91 798.22 244.79 798.09 240.00 798.00
C 247.60 795.42 233.72 795.35 228.00 796.00 C 222.28 796.65 213.33 794.88 207.78 793.22 C 202.23 791.56 196.08 789.70 190.92 787.08 C 185.77 784.45 181.50 781.52 177.25 777.75 C 173.00 773.98 168.97 771.25 165.25 766.75 C 161.52 762.25 158.75 758.18 156.08 752.92 C 153.40 747.67 150.67 742.84 149.07 736.93 C 147.48 731.01 145.58 723.58 146.00 717.00
C 145.74 713.13 144.95 709.45 145.00 706.00
C 145.22 691.19 142.96 673.85 146.00 660.00
C 146.00 659.00 146.00 658.00 146.00 657.00
C 140.70 632.85 146.17 602.36 146.00 578.00
C 145.79 575.97 145.16 574.20 145.00 572.00
C 144.73 568.38 145.00 564.63 145.00 561.00
C 145.00 559.00 145.00 557.00 145.00 555.00
C 145.00 550.67 144.87 546.32 145.00 542.00
C 145.18 535.86 145.41 529.29 146.00 523.00
C 145.91 493.88 144.40 462.88 145.00 433.00
C 145.06 430.12 145.76 427.57 146.00 425.00
C 145.93 402.19 145.49 377.57 145.00 354.00 C 144.51 330.43 147.15 304.68 146.00 282.00
C 145.24 277.25 144.95 280.60 146.00 276.00
C 145.48 267.08 149.46 256.67 152.92 248.92 C 156.39 241.18 161.32 235.34 167.25 229.25 C 173.17 223.16 179.17 218.28 187.23 214.23 C 195.29 210.18 204.30 207.63 214.00 207.00 C 223.70 206.37 238.06 207.76 248.00 207.00 C 257.94 206.24 273.03 209.68 278.00 204.00
C 280.89 226.66 271.90 264.13 296.75 279.25 C 321.59 294.38 351.26 278.71 356.00 252.00
M 170.00 224.00 
C 170.74 224.74 169.18 223.18 170.00 224.00
M 766.00 437.00 
C 769.45 437.55 772.64 438.27 776.00 439.00
C 816.95 447.92 849.86 478.16 866.00 516.00
C 866.80 517.88 868.32 519.77 869.00 522.00
C 869.49 523.60 869.51 525.38 870.00 527.00
C 871.11 530.72 872.29 534.10 873.00 538.00
C 877.24 561.21 875.15 585.45 867.00 607.00
C 861.90 620.47 854.89 633.41 845.00 644.00
C 843.59 645.51 842.30 647.48 841.00 649.00
C 831.01 660.69 819.12 671.51 808.00 682.00
C 782.81 709.78 752.81 736.19 725.00 764.00
C 694.45 794.55 663.45 825.55 633.00 856.00
C 624.05 866.47 613.32 875.80 601.00 884.00
C 577.53 899.61 551.60 904.50 524.00 903.00
C 521.37 902.86 519.47 902.38 517.00 902.00
C 514.62 901.64 512.16 902.14 510.00 901.00
C 507.99 902.92 505.74 901.44 504.00 904.00
C 503.15 901.72 505.15 901.41 506.00 900.00
C 504.28 899.87 503.56 899.46 502.00 899.00
C 467.41 888.87 435.64 863.32 422.00 829.00
C 421.05 831.61 418.77 830.13 418.00 828.00
C 416.60 826.54 417.46 821.59 419.00 823.00
C 418.42 819.86 416.94 816.10 416.00 813.00
C 415.31 810.74 413.43 807.94 414.00 805.00
C 410.45 811.42 413.91 799.00 412.00 796.00
C 411.26 794.92 411.43 793.17 409.00 794.00
C 410.91 792.39 411.45 789.09 411.00 785.00
C 411.00 784.00 411.00 783.00 411.00 782.00
C 410.05 777.68 410.69 773.12 411.00 769.00
C 410.92 767.58 410.91 767.50 411.00 766.00
C 414.12 713.61 455.75 673.54 492.75 638.75 C 529.75 603.96 560.85 567.24 597.75 533.75 C 634.65 500.26 664.89 452.58 712.00 440.00
C 719.40 438.02 727.19 436.42 735.00 436.00
C 745.59 435.43 755.24 435.29 766.00 437.00
M 368.00 460.00 
C 370.50 478.34 370.76 503.46 368.00 522.00
C 367.59 524.77 365.97 527.52 367.00 530.00
C 353.19 545.23 330.03 534.11 312.00 538.00 C 293.97 541.89 269.24 535.30 273.00 514.00 C 276.76 492.70 267.12 471.75 275.31 453.31 C 283.49 434.86 310.00 446.28 325.00 444.00 C 340.00 441.72 366.07 440.09 368.00 460.00
M 448.00 443.00 
C 463.21 443.13 474.06 446.38 491.00 444.00 C 507.94 441.62 527.19 448.79 523.00 469.00 C 518.81 489.21 527.24 506.34 522.67 524.67 C 518.10 543.00 495.04 539.09 481.00 538.00 C 466.96 536.91 443.27 544.38 432.75 532.25 C 422.24 520.12 430.65 495.38 428.00 480.00 C 425.35 464.62 428.57 442.83 448.00 443.00
M 273.00 525.00 
C 274.79 526.79 272.23 524.23 273.00 525.00
M 274.00 529.00 
C 274.61 529.61 272.34 527.34 274.00 529.00
M 354.00 584.00 
C 362.34 585.73 366.13 590.90 368.00 599.00
C 368.40 600.74 368.81 602.13 369.00 604.00
C 370.65 620.32 370.11 640.50 368.00 656.00
C 368.00 657.33 368.05 658.67 368.00 660.00
C 367.71 667.74 361.01 675.70 353.00 676.00
C 352.50 676.02 352.00 676.00 352.00 676.00
C 352.40 676.82 352.27 678.21 353.00 679.00
C 348.00 679.00 343.00 679.00 338.00 679.00
C 339.78 676.97 343.48 678.47 346.00 678.00
C 338.28 676.05 336.99 678.53 331.00 677.00 C 325.00 675.48 315.48 678.00 309.00 677.00 C 302.52 676.00 293.74 678.58 288.00 676.00
C 287.50 676.00 286.47 676.13 286.00 676.00
C 280.49 674.49 277.00 669.81 275.00 665.00
C 274.69 664.24 274.15 664.20 274.00 663.00
C 271.67 661.45 273.09 652.65 273.00 646.00 C 272.91 639.35 272.63 630.07 273.00 623.00 C 273.37 615.93 271.91 607.10 273.00 600.00
C 273.19 598.76 273.64 598.18 274.00 597.00
C 274.62 594.99 275.18 593.70 276.00 592.00
C 277.48 588.92 279.16 587.97 282.00 585.00
C 279.63 583.37 283.54 584.95 283.00 585.00
C 284.72 583.97 286.02 584.15 288.00 584.00
C 298.03 582.13 310.21 582.93 321.00 583.00 C 331.79 583.07 344.06 581.94 354.00 584.00
M 305.00 678.00 
C 301.25 680.22 295.51 678.41 291.00 679.00
C 294.75 676.78 300.49 678.59 305.00 678.00
M 329.00 678.00 
C 323.58 680.28 316.18 678.37 310.00 679.00
C 315.42 676.72 322.82 678.63 329.00 678.00
M 283.00 797.00 
C 277.25 799.28 269.51 797.37 263.00 798.00
C 268.75 795.72 276.49 797.63 283.00 797.00
M 299.00 797.00 
C 294.91 799.24 288.84 797.40 284.00 798.00
C 288.09 795.76 294.16 797.60 299.00 797.00
M 483.00 893.00 
C 483.74 893.75 482.19 892.18 483.00 893.00 Z"/>
</g>
<g fill="None" fill-opacity="0.0" stroke="#0E96E1" stroke-opacity="0.96" stroke-width="0.3"><path d="
M 304.00 272.00 
C 314.11 272.59 326.87 275.42 335.25 266.25 C 343.63 257.07 343.29 245.35 343.00 233.00 C 342.71 220.65 343.21 204.27 343.00 192.00 C 342.79 179.73 344.70 165.13 338.77 155.23 C 332.84 145.33 321.29 141.42 311.07 144.07 C 300.86 146.73 292.54 153.75 291.33 165.33 C 290.12 176.91 291.51 193.69 291.00 206.00 C 290.49 218.31 291.61 234.95 291.01 246.99 C 290.40 259.04 299.86 264.37 304.00 272.00 Z"/>
</g>
<g fill="None" fill-opacity="0.0" stroke="#0E96E1" stroke-opacity="0.98" stroke-width="0.3"><path d="
M 601.00 165.00 
C 602.15 191.95 604.24 223.18 601.00 250.00
C 597.61 266.38 627.62 282.28 641.75 268.75 C 655.88 255.22 652.81 228.26 652.00 209.00 C 651.19 189.74 657.98 161.89 642.25 148.75 C 626.52 135.62 603.93 146.59 601.00 165.00 Z"/>
</g>
<g fill="None" fill-opacity="0.0" stroke="#0686D1" stroke-opacity="0.75" stroke-width="0.3"><path d="
M 601.00 199.00 
C 601.83 215.57 600.98 232.40 601.00 249.00
C 601.00 249.00 601.10 249.52 601.00 250.00
C 604.24 223.18 602.15 191.95 601.00 165.00
C 599.13 176.73 600.43 187.58 601.00 199.00 Z"/>
</g>
<g fill="None" fill-opacity="0.0" stroke="#139DE7" stroke-opacity="0.02" stroke-width="0.3"><path d="
M 601.00 249.00 
C 600.98 232.40 601.83 215.57 601.00 199.00
C 600.56 206.00 598.42 215.77 600.00 223.00 C 601.58 230.23 596.69 243.17 601.00 249.00 Z"/>
</g>
<g fill="None" fill-opacity="0.0" stroke="#0E97E2" stroke-opacity="0.99" stroke-width="0.3"><path d="
M 146.00 276.00 
C 148.82 323.91 146.93 373.22 147.00 422.00 C 147.07 470.78 148.17 521.20 147.00 570.00 C 145.83 618.80 150.63 669.20 146.00 717.00
C 145.58 723.58 147.48 731.01 149.07 736.93 C 150.67 742.84 153.40 747.67 156.08 752.92 C 158.75 758.18 161.52 762.25 165.25 766.75 C 168.97 771.25 173.00 773.98 177.25 777.75 C 181.50 781.52 185.77 784.45 190.92 787.08 C 196.08 789.70 202.23 791.56 207.78 793.22 C 213.33 794.88 222.28 796.65 228.00 796.00 C 233.72 795.35 247.60 795.42 240.00 798.00
C 244.79 798.09 253.91 798.22 245.00 796.00
C 265.23 796.01 286.51 795.54 306.00 797.00
C 307.50 796.87 307.44 796.91 309.00 797.00
C 317.43 795.35 328.82 795.76 338.00 796.00 C 347.18 796.24 358.21 793.87 365.00 799.00
C 363.93 795.26 371.01 795.33 367.00 798.00
C 383.22 801.12 368.52 777.86 376.00 771.00
C 372.55 770.15 374.08 762.27 374.00 757.00 C 373.93 751.74 375.65 743.23 377.00 738.00
C 376.83 737.40 375.23 736.23 376.00 735.00
C 368.68 734.99 361.31 735.01 354.00 735.00 C 346.69 734.99 339.30 735.02 332.00 735.00 C 324.70 734.98 317.25 735.05 310.00 735.00 C 302.75 734.96 295.16 735.10 288.00 735.00 C 280.84 734.90 272.95 735.22 266.00 735.00 C 259.05 734.78 250.48 735.48 244.00 735.00 C 237.52 734.52 227.81 736.99 226.00 733.00
C 217.81 731.91 210.95 725.25 210.00 717.00
C 209.99 716.94 209.00 717.00 209.00 717.00
C 204.14 712.29 209.53 699.17 208.00 692.00 C 206.47 684.83 208.69 674.01 208.00 666.00 C 207.31 657.99 208.31 648.41 208.00 640.00 C 207.69 631.59 208.13 622.64 208.00 614.00 C 207.87 605.36 208.06 595.71 208.00 587.00 C 207.94 578.29 208.03 569.70 208.00 561.00 C 207.97 552.30 208.01 543.72 208.00 535.00 C 207.99 526.28 208.01 517.77 208.00 509.00 C 207.99 500.23 208.00 490.78 208.00 482.00 C 208.00 473.22 208.00 464.74 208.00 456.00 C 208.00 447.26 208.00 438.75 208.00 430.00 C 208.00 421.25 208.00 412.82 208.00 404.00 C 208.00 395.18 208.00 385.86 208.00 377.00
C 385.66 377.00 563.33 377.00 741.00 377.00
C 741.00 384.33 741.00 391.67 741.00 399.00
C 745.83 399.65 751.99 397.69 756.00 400.00
C 761.03 401.52 768.66 400.53 773.98 402.02 C 779.29 403.52 786.91 403.27 788.00 408.00
C 790.73 404.40 798.20 408.71 803.00 411.00
C 803.31 396.33 802.68 380.40 803.00 365.00 C 803.32 349.60 802.46 332.30 803.00 317.00 C 803.54 301.70 800.95 285.46 805.00 272.00
C 800.67 268.39 799.32 257.22 796.32 250.68 C 793.32 244.14 788.84 237.84 784.77 232.23 C 780.70 226.62 771.87 222.29 773.00 218.00
C 762.62 217.84 755.40 208.93 744.00 208.00 C 732.61 207.06 717.05 205.81 705.00 207.00 C 692.95 208.20 678.15 204.27 667.00 207.00
C 666.65 207.09 666.05 207.65 666.00 208.00
C 668.71 217.06 666.07 230.35 667.00 240.00 C 667.93 249.65 666.06 260.23 661.00 265.00
C 647.70 284.14 623.85 292.15 603.23 277.77 C 582.61 263.39 585.80 229.85 588.00 207.00
C 512.66 209.24 436.22 203.93 360.00 207.00
C 356.02 208.99 358.42 218.02 358.00 222.00 C 357.58 225.98 358.01 235.49 358.00 239.00 C 357.99 242.51 358.46 254.07 356.00 252.00
C 351.26 278.71 321.59 294.38 296.75 279.25 C 271.90 264.13 280.89 226.66 278.00 204.00
C 273.03 209.68 257.94 206.24 248.00 207.00 C 238.06 207.76 223.70 206.37 214.00 207.00 C 204.30 207.63 195.29 210.18 187.23 214.23 C 179.17 218.28 173.17 223.16 167.25 229.25 C 161.32 235.34 156.39 241.18 152.92 248.92 C 149.46 256.67 145.48 267.08 146.00 276.00
M 373.00 796.00 
C 373.61 796.61 371.34 794.34 373.00 796.00 Z"/>
</g>
<g fill="None" fill-opacity="0.0" stroke="#1795E0" stroke-opacity="0.05" stroke-width="0.3"><path d="
M 356.00 251.00 
C 359.79 245.88 355.84 236.64 357.00 230.00 C 358.16 223.36 356.13 213.90 357.00 207.00
C 358.00 207.00 359.00 207.00 360.00 207.00
C 353.14 207.28 356.43 218.62 356.00 226.00 C 355.57 233.38 356.00 243.38 356.00 251.00 Z"/>
</g>
<g fill="None" fill-opacity="0.0" stroke="#139FE5" stroke-opacity="0.06" stroke-width="0.3"><path d="
M 665.00 248.00 
C 666.79 235.50 664.13 221.00 666.00 208.00
C 666.05 207.65 666.65 207.09 667.00 207.00
C 666.53 205.04 665.16 207.79 664.00 207.00
C 665.29 219.72 665.52 234.29 665.00 248.00 Z"/>
</g>
<g fill="None" fill-opacity="0.0" stroke="#0D7BC2" stroke-opacity="0.96" stroke-width="0.3"><path d="
M 356.00 251.00 
C 356.00 251.00 356.02 251.50 356.00 252.00
C 358.46 254.07 357.99 242.51 358.00 239.00 C 358.01 235.49 357.58 225.98 358.00 222.00 C 358.42 218.02 356.02 208.99 360.00 207.00
C 359.00 207.00 358.00 207.00 357.00 207.00
C 356.13 213.90 358.16 223.36 357.00 230.00 C 355.84 236.64 359.79 245.88 356.00 251.00 Z"/>
</g>
<g fill="None" fill-opacity="0.0" stroke="#0C80C9" stroke-opacity="0.88" stroke-width="0.3"><path d="
M 665.00 248.00 
C 664.78 253.82 663.67 259.95 661.00 265.00
C 666.06 260.23 667.93 249.65 667.00 240.00 C 666.07 230.35 668.71 217.06 666.00 208.00
C 664.13 221.00 666.79 235.50 665.00 248.00 Z"/>
</g>
<g fill="None" fill-opacity="0.0" stroke="#00AAAA" stroke-opacity="0.01" stroke-width="0.3"><path d="
M 170.00 224.00 
C 169.18 223.18 170.74 224.74 170.00 224.00 Z"/>
</g>
<g fill="None" fill-opacity="0.0" stroke="#0A81C8" stroke-opacity="0.82" stroke-width="0.3"><path d="
M 146.00 282.00 
C 148.46 297.33 145.21 313.39 146.00 329.00 C 146.79 344.61 146.25 361.26 146.00 377.00 C 145.75 392.74 147.47 409.32 146.00 425.00
C 145.76 427.57 145.06 430.12 145.00 433.00
C 147.17 461.16 148.71 494.16 146.00 523.00
C 145.41 529.29 145.18 535.86 145.00 542.00
C 145.30 546.01 145.39 551.03 145.00 555.00
C 145.00 557.00 145.00 559.00 145.00 561.00
C 145.31 564.23 145.07 568.94 145.00 572.00
C 145.16 574.20 145.79 575.97 146.00 578.00
C 148.63 603.72 146.00 631.13 146.00 657.00
C 146.00 658.00 146.00 659.00 146.00 660.00
C 146.00 675.15 146.91 691.68 145.00 706.00
C 144.95 709.45 145.74 713.13 146.00 717.00
C 150.63 669.20 145.83 618.80 147.00 570.00 C 148.17 521.20 147.07 470.78 147.00 422.00 C 146.93 373.22 148.82 323.91 146.00 276.00
C 144.95 280.60 145.24 277.25 146.00 282.00 Z"/>
</g>
<g fill="None" fill-opacity="0.0" stroke="#1898D9" stroke-opacity="0.02" stroke-width="0.3"><path d="
M 146.00 425.00 
C 147.47 409.32 145.75 392.74 146.00 377.00 C 146.25 361.26 146.79 344.61 146.00 329.00 C 145.21 313.39 148.46 297.33 146.00 282.00
C 147.15 304.68 144.51 330.43 145.00 354.00 C 145.49 377.57 145.93 402.19 146.00 425.00 Z"/>
</g>
<g fill="None" fill-opacity="0.0" stroke="#068BD0" stroke-opacity="0.74" stroke-width="0.3"><path d="
M 209.00 717.00 
C 208.00 705.94 209.43 695.17 209.00 684.00 C 208.57 672.84 209.19 661.25 209.00 650.00 C 208.81 638.75 209.07 627.29 209.00 616.00 C 208.93 604.71 209.01 593.29 209.00 582.00 C 208.99 570.71 208.94 559.27 209.00 548.00 C 209.06 536.73 208.84 525.21 209.00 514.00 C 209.16 502.79 208.63 491.06 209.00 480.00 C 209.37 468.94 208.17 456.72 209.00 446.00 C 209.83 435.28 207.15 421.99 209.00 412.00 C 210.85 402.01 204.44 386.67 210.00 379.00
C 214.66 374.34 224.36 380.24 229.98 378.98 C 235.59 377.71 244.16 378.28 250.00 378.00 C 255.83 377.72 261.90 378.29 267.00 378.00
C 270.78 377.78 275.01 378.77 278.00 379.00
C 285.64 378.44 289.39 378.86 297.25 378.61 C 305.10 378.35 307.27 379.58 316.99 378.99 C 326.71 378.41 339.48 378.53 348.99 378.99 C 358.50 379.45 359.20 378.22 366.92 378.94 C 374.64 379.65 378.49 377.56 385.98 378.02 C 393.46 378.49 396.92 379.19 405.00 379.00 C 413.08 378.81 413.60 379.28 422.92 378.93 C 432.24 378.58 446.30 378.63 455.25 378.61 C 464.20 378.58 467.27 379.25 475.00 379.00 C 482.73 378.75 487.50 378.64 494.92 378.94 C 502.34 379.23 507.80 378.21 515.00 378.00 C 522.19 377.79 529.10 379.46 535.75 378.80 C 542.41 378.14 547.71 378.73 554.00 379.00 C 560.29 379.27 566.57 377.81 572.00 379.00 C 577.43 380.19 581.70 377.40 586.77 378.21 C 591.84 379.03 598.96 377.80 604.97 378.02 C 610.99 378.24 616.75 378.46 622.75 378.20 C 628.76 377.93 634.59 378.62 641.00 378.00 C 647.41 377.38 657.40 378.53 663.78 378.78 C 670.16 379.03 675.96 377.57 682.00 379.00 C 688.04 380.43 695.45 376.17 700.97 378.02 C 706.49 379.87 713.47 376.09 718.78 378.22 C 724.09 380.35 735.41 374.98 739.00 378.00
C 743.67 381.93 736.06 396.54 741.00 400.00
C 745.55 401.13 751.30 399.69 756.00 400.00
C 751.99 397.69 745.83 399.65 741.00 399.00
C 741.00 391.67 741.00 384.33 741.00 377.00
C 563.33 377.00 385.66 377.00 208.00 377.00
C 208.00 385.86 208.00 395.18 208.00 404.00 C 208.00 412.82 208.00 421.25 208.00 430.00 C 208.00 438.75 208.00 447.26 208.00 456.00 C 208.00 464.74 208.00 473.22 208.00 482.00 C 208.00 490.78 207.99 500.23 208.00 509.00 C 208.01 517.77 207.99 526.28 208.00 535.00 C 208.01 543.72 207.97 552.30 208.00 561.00 C 208.03 569.70 207.94 578.29 208.00 587.00 C 208.06 595.71 207.87 605.36 208.00 614.00 C 208.13 622.64 207.69 631.59 208.00 640.00 C 208.31 648.41 207.31 657.99 208.00 666.00 C 208.69 674.01 206.47 684.83 208.00 692.00 C 209.53 699.17 204.14 712.29 209.00 717.00 Z"/>
</g>
<g fill="None" fill-opacity="0.0" stroke="#00C5FF" stroke-opacity="0.01" stroke-width="0.3"><path d="
M 278.00 379.00 
C 275.01 378.77 270.78 377.78 267.00 378.00
C 270.72 378.46 273.44 379.34 278.00 379.00 Z"/>
</g>
<g fill="None" fill-opacity="0.0" stroke="#199AD5" stroke-opacity="0.15" stroke-width="0.3"><path d="
M 741.00 400.00 
C 736.06 396.54 743.67 381.93 739.00 378.00
C 740.43 383.34 736.22 398.81 741.00 400.00 Z"/>
</g>
<g fill="None" fill-opacity="0.0" stroke="#1B9DE3" stroke-opacity="0.04" stroke-width="0.3"><path d="
M 209.00 717.00 
C 209.00 717.00 209.99 716.94 210.00 717.00
C 210.80 708.20 209.63 698.80 210.00 690.00 C 210.37 681.20 209.83 672.77 210.00 664.00 C 210.17 655.23 209.93 646.80 210.00 638.00 C 210.07 629.20 209.96 619.79 210.00 611.00 C 210.04 602.21 209.98 593.76 210.00 585.00 C 210.02 576.24 209.99 567.78 210.00 559.00 C 210.01 550.22 209.98 540.77 210.00 532.00 C 210.02 523.23 209.96 514.70 210.00 506.00 C 210.04 497.30 209.91 488.65 210.00 480.00 C 210.09 471.35 209.82 461.47 210.00 453.00 C 210.18 444.53 209.58 435.02 210.00 427.00 C 210.42 418.98 209.06 408.15 210.00 401.00 C 210.94 393.85 208.00 381.76 210.00 379.00
C 204.44 386.67 210.85 402.01 209.00 412.00 C 207.15 421.99 209.83 435.28 209.00 446.00 C 208.17 456.72 209.37 468.94 209.00 480.00 C 208.63 491.06 209.16 502.79 209.00 514.00 C 208.84 525.21 209.06 536.73 209.00 548.00 C 208.94 559.27 208.99 570.71 209.00 582.00 C 209.01 593.29 208.93 604.71 209.00 616.00 C 209.07 627.29 208.81 638.75 209.00 650.00 C 209.19 661.25 208.57 672.84 209.00 684.00 C 209.43 695.17 208.00 705.94 209.00 717.00 Z"/>
</g>
<g fill="None" fill-opacity="0.0" stroke="#109CE0" stroke-opacity="0.02" stroke-width="0.3"><path d="
M 146.00 523.00 
C 148.71 494.16 147.17 461.16 145.00 433.00
C 144.40 462.88 145.91 493.88 146.00 523.00 Z"/>
</g>
<g fill="None" fill-opacity="0.0" stroke="#10BEA3" stroke-opacity="0.99" stroke-width="0.3"><path d="
M 735.00 436.00 
C 735.08 435.98 726.72 440.14 723.00 439.00 C 719.28 437.86 718.82 440.11 715.98 440.98 C 713.13 441.84 710.87 440.01 712.00 440.00
C 664.89 452.58 634.65 500.26 597.75 533.75 C 560.85 567.24 529.75 603.96 492.75 638.75 C 455.75 673.54 414.12 713.61 411.00 766.00
C 411.58 771.98 411.57 779.09 411.00 785.00
C 411.45 789.09 410.91 792.39 409.00 794.00
C 411.43 793.17 411.26 794.92 412.00 796.00
C 415.06 800.44 415.52 807.67 416.00 813.00
C 416.94 816.10 418.42 819.86 419.00 823.00
C 419.24 824.28 420.37 826.78 418.00 828.00
C 418.77 830.13 421.05 831.61 422.00 829.00
C 435.64 863.32 467.41 888.87 502.00 899.00
C 502.90 899.06 511.44 897.33 510.00 900.00
C 509.79 900.39 510.00 901.00 510.00 901.00
C 512.16 902.14 514.62 901.64 517.00 902.00
C 518.00 901.96 519.20 901.50 521.00 901.00 C 522.81 900.51 523.77 902.95 524.00 903.00
C 551.60 904.50 577.53 899.61 601.00 884.00
C 611.33 873.03 627.79 858.40 641.00 847.00
C 660.82 826.99 683.43 807.52 702.00 786.00
C 715.20 770.70 730.66 756.30 745.25 742.25 C 759.83 728.20 773.12 711.37 789.00 699.00
C 789.20 698.68 789.68 698.20 790.00 698.00
C 802.33 682.17 816.92 669.81 831.75 655.75 C 846.58 641.69 856.81 622.63 867.00 607.00
C 875.15 585.45 877.24 561.21 873.00 538.00
C 873.22 538.48 870.17 536.45 870.07 533.93 C 869.97 531.40 870.12 528.57 870.00 527.00
C 869.51 525.38 869.49 523.60 869.00 522.00
C 869.12 522.20 866.88 522.60 866.23 520.76 C 865.58 518.93 866.14 516.81 866.00 516.00
C 849.86 478.16 816.95 447.92 776.00 439.00
C 771.45 438.97 769.59 438.42 766.00 437.00
C 755.24 435.29 745.59 435.43 735.00 436.00
M 649.00 791.00 
C 639.58 794.09 634.33 807.63 625.75 813.75 C 617.18 819.87 611.08 829.64 602.75 836.75 C 594.43 843.86 587.78 852.57 577.75 857.75 C 567.73 862.94 554.61 868.08 543.00 869.00
C 540.91 869.87 531.00 872.30 525.00 871.00 C 519.00 869.70 520.85 869.61 517.00 868.00
C 467.73 858.32 434.35 805.53 447.00 756.00
C 447.98 727.17 476.20 705.47 496.25 685.25 C 516.29 665.02 535.26 642.58 557.00 624.00
C 563.90 617.11 573.76 600.42 582.25 609.75 C 590.74 619.09 598.87 625.95 607.25 634.75 C 615.63 643.55 623.94 651.17 632.25 659.75 C 640.56 668.34 649.03 676.22 657.25 684.75 C 665.47 693.28 674.19 701.14 682.25 709.75 C 690.31 718.36 700.63 725.92 706.00 736.00
C 686.59 753.25 667.92 775.91 649.00 791.00 Z"/>
</g>
<g fill="None" fill-opacity="0.0" stroke="#12A68D" stroke-opacity="0.71" stroke-width="0.3"><path d="
M 712.00 440.00 
C 710.87 440.01 713.13 441.84 715.98 440.98 C 718.82 440.11 719.28 437.86 723.00 439.00 C 726.72 440.14 735.08 435.98 735.00 436.00
C 727.19 436.42 719.40 438.02 712.00 440.00 Z"/>
</g>
<g fill="None" fill-opacity="0.0" stroke="#14A58E" stroke-opacity="0.71" stroke-width="0.3"><path d="
M 776.00 439.00 
C 772.64 438.27 769.45 437.55 766.00 437.00
C 769.59 438.42 771.45 438.97 776.00 439.00 Z"/>
</g>
<g fill="None" fill-opacity="0.0" stroke="#0E97E1" stroke-opacity="0.98" stroke-width="0.3"><path d="
M 368.00 522.00 
C 368.12 502.41 367.88 479.54 368.00 460.00
C 366.07 440.09 340.00 441.72 325.00 444.00 C 310.00 446.28 283.49 434.86 275.31 453.31 C 267.12 471.75 276.76 492.70 273.00 514.00 C 269.24 535.30 293.97 541.89 312.00 538.00 C 330.03 534.11 353.19 545.23 367.00 530.00
C 365.97 527.52 367.59 524.77 368.00 522.00 Z"/>
</g>
<g fill="None" fill-opacity="0.0" stroke="#0E97E0" stroke-opacity="0.98" stroke-width="0.3"><path d="
M 448.00 443.00 
C 428.57 442.83 425.35 464.62 428.00 480.00 C 430.65 495.38 422.24 520.12 432.75 532.25 C 443.27 544.38 466.96 536.91 481.00 538.00 C 495.04 539.09 518.10 543.00 522.67 524.67 C 527.24 506.34 518.81 489.21 523.00 469.00 C 527.19 448.79 507.94 441.62 491.00 444.00 C 474.06 446.38 463.21 443.13 448.00 443.00 Z"/>
</g>
<g fill="None" fill-opacity="0.0" stroke="#0096DD" stroke-opacity="0.56" stroke-width="0.3"><path d="
M 368.00 522.00 
C 370.76 503.46 370.50 478.34 368.00 460.00
C 367.88 479.54 368.12 502.41 368.00 522.00 Z"/>
</g>
<g fill="None" fill-opacity="0.0" stroke="#129981" stroke-opacity="0.68" stroke-width="0.3"><path d="
M 869.00 522.00 
C 868.32 519.77 866.80 517.88 866.00 516.00
C 866.14 516.81 865.58 518.93 866.23 520.76 C 866.88 522.60 869.12 522.20 869.00 522.00 Z"/>
</g>
<g fill="None" fill-opacity="0.0" stroke="#00BEDF" stroke-opacity="0.01" stroke-width="0.3"><path d="
M 273.00 525.00 
C 272.23 524.23 274.79 526.79 273.00 525.00 Z"/>
</g>
<g fill="None" fill-opacity="0.0" stroke="#0EA289" stroke-opacity="0.68" stroke-width="0.3"><path d="
M 873.00 538.00 
C 872.29 534.10 871.11 530.72 870.00 527.00
C 870.12 528.57 869.97 531.40 870.07 533.93 C 870.17 536.45 873.22 538.48 873.00 538.00 Z"/>
</g>
<g fill="None" fill-opacity="0.0" stroke="#006363" stroke-opacity="0.00" stroke-width="0.3"><path d="
M 274.00 529.00 
C 272.34 527.34 274.61 529.61 274.00 529.00 Z"/>
</g>
<g fill="None" fill-opacity="0.0" stroke="#0499E4" stroke-opacity="0.02" stroke-width="0.3"><path d="
M 145.00 555.00 
C 145.39 551.03 145.30 546.01 145.00 542.00
C 144.87 546.32 145.00 550.67 145.00 555.00 Z"/>
</g>
<g fill="None" fill-opacity="0.0" stroke="#00B6EE" stroke-opacity="0.01" stroke-width="0.3"><path d="
M 145.00 572.00 
C 145.07 568.94 145.31 564.23 145.00 561.00
C 145.00 564.63 144.73 568.38 145.00 572.00 Z"/>
</g>
<g fill="None" fill-opacity="0.0" stroke="#0D98DB" stroke-opacity="0.02" stroke-width="0.3"><path d="
M 146.00 657.00 
C 146.00 631.13 148.63 603.72 146.00 578.00
C 146.17 602.36 140.70 632.85 146.00 657.00 Z"/>
</g>
<g fill="None" fill-opacity="0.0" stroke="#1899E1" stroke-opacity="0.15" stroke-width="0.3"><path d="
M 288.00 584.00 
C 309.88 582.39 332.09 585.21 354.00 584.00
C 344.06 581.94 331.79 583.07 321.00 583.00 C 310.21 582.93 298.03 582.13 288.00 584.00 Z"/>
</g>
<g fill="None" fill-opacity="0.0" stroke="#00FFFF" stroke-opacity="0.00" stroke-width="0.3"><path d="
M 282.00 585.00 
C 282.24 584.75 283.00 585.00 283.00 585.00
C 283.54 584.95 279.63 583.37 282.00 585.00 Z"/>
</g>
<g fill="None" fill-opacity="0.0" stroke="#0984CD" stroke-opacity="0.90" stroke-width="0.3"><path d="
M 283.00 585.00 
C 283.00 585.00 282.24 584.75 282.00 585.00
C 279.16 587.97 277.48 588.92 276.00 592.00
C 284.05 583.58 298.03 584.27 311.00 585.00 C 323.97 585.73 341.54 584.07 354.00 584.00
C 332.09 585.21 309.88 582.39 288.00 584.00
C 286.02 584.15 284.72 583.97 283.00 585.00 Z"/>
</g>
<g fill="None" fill-opacity="0.0" stroke="#0E97E2" stroke-opacity="0.99" stroke-width="0.3"><path d="
M 276.00 592.00 
C 275.18 593.70 274.62 594.99 274.00 597.00
C 273.71 607.09 274.96 620.19 275.00 631.00 C 275.04 641.81 273.29 655.66 275.00 665.00
C 277.00 669.81 280.49 674.49 286.00 676.00
C 285.49 675.47 299.49 674.02 305.00 675.00 C 310.51 675.98 323.11 673.53 329.00 675.00 C 334.89 676.47 348.86 671.70 353.00 676.00
C 361.01 675.70 367.71 667.74 368.00 660.00
C 367.89 640.73 368.12 618.18 368.00 599.00
C 366.13 590.90 362.34 585.73 354.00 584.00
C 341.54 584.07 323.97 585.73 311.00 585.00 C 298.03 584.27 284.05 583.58 276.00 592.00 Z"/>
</g>
<g fill="None" fill-opacity="0.0" stroke="#0D7FCA" stroke-opacity="0.95" stroke-width="0.3"><path d="
M 273.00 600.00 
C 272.83 609.45 274.12 620.75 274.00 631.00 C 273.88 641.25 272.74 652.81 274.00 663.00
C 274.15 664.20 274.69 664.24 275.00 665.00
C 273.29 655.66 275.04 641.81 275.00 631.00 C 274.96 620.19 273.71 607.09 274.00 597.00
C 273.64 598.18 273.19 598.76 273.00 600.00 Z"/>
</g>
<g fill="None" fill-opacity="0.0" stroke="#087EC6" stroke-opacity="0.92" stroke-width="0.3"><path d="
M 368.00 660.00 
C 368.05 658.67 368.00 657.33 368.00 656.00
C 368.00 638.85 369.07 620.32 369.00 604.00
C 368.81 602.13 368.40 600.74 368.00 599.00
C 368.12 618.18 367.89 640.73 368.00 660.00 Z"/>
</g>
<g fill="None" fill-opacity="0.0" stroke="#1193D8" stroke-opacity="0.30" stroke-width="0.3"><path d="
M 274.00 663.00 
C 272.74 652.81 273.88 641.25 274.00 631.00 C 274.12 620.75 272.83 609.45 273.00 600.00
C 271.91 607.10 273.37 615.93 273.00 623.00 C 272.63 630.07 272.91 639.35 273.00 646.00 C 273.09 652.65 271.67 661.45 274.00 663.00 Z"/>
</g>
<g fill="None" fill-opacity="0.0" stroke="#229BDB" stroke-opacity="0.02" stroke-width="0.3"><path d="
M 368.00 656.00 
C 370.11 640.50 370.65 620.32 369.00 604.00
C 369.07 620.32 368.00 638.85 368.00 656.00 Z"/>
</g>
<g fill="None" fill-opacity="0.0" stroke="#10A385" stroke-opacity="0.93" stroke-width="0.3"><path d="
M 557.00 624.00 
C 560.01 621.43 563.04 618.53 566.00 616.00
C 569.52 612.99 573.32 609.75 576.00 606.00
C 578.96 608.21 581.90 611.02 584.00 614.00
C 587.19 617.16 590.64 621.10 594.00 624.00
C 598.83 628.17 603.21 632.66 607.75 637.25 C 612.30 641.83 617.21 646.66 621.75 651.25 C 626.30 655.83 630.74 660.16 635.25 664.75 C 639.75 669.34 644.83 674.16 649.25 678.75 C 653.66 683.35 658.56 687.64 662.75 692.25 C 666.94 696.85 673.00 701.63 676.75 706.25 C 680.50 710.87 687.59 715.09 690.25 719.75 C 692.90 724.41 704.00 728.98 704.00 734.00
C 704.00 736.67 697.98 740.08 696.70 742.70 C 695.42 745.32 690.06 748.78 688.00 751.00
C 676.21 763.76 663.20 780.04 649.00 790.00
C 648.80 790.40 649.00 791.00 649.00 791.00
C 667.92 775.91 686.59 753.25 706.00 736.00
C 700.63 725.92 690.31 718.36 682.25 709.75 C 674.19 701.14 665.47 693.28 657.25 684.75 C 649.03 676.22 640.56 668.34 632.25 659.75 C 623.94 651.17 615.63 643.55 607.25 634.75 C 598.87 625.95 590.74 619.09 582.25 609.75 C 573.76 600.42 563.90 617.11 557.00 624.00 Z"/>
</g>
<g fill="None" fill-opacity="0.0" stroke="#18C8AC" stroke-opacity="0.05" stroke-width="0.3"><path d="
M 566.00 616.00 
C 565.52 616.51 565.41 617.52 565.00 618.00
C 568.74 614.54 573.07 611.17 576.00 607.00
C 579.11 608.73 580.92 612.33 584.00 614.00
C 581.90 611.02 578.96 608.21 576.00 606.00
C 573.32 609.75 569.52 612.99 566.00 616.00 Z"/>
</g>
<g fill="None" fill-opacity="0.0" stroke="#000000" stroke-opacity="0.00" stroke-width="0.3"><path d="
M 565.00 618.00 
C 545.23 641.24 521.58 660.07 499.92 682.92 C 478.26 705.77 455.33 723.39 447.00 756.00
C 434.35 805.53 467.73 858.32 517.00 868.00
C 524.98 869.57 534.63 869.66 543.00 869.00
C 554.61 868.08 567.73 862.94 577.75 857.75 C 587.78 852.57 594.43 843.86 602.75 836.75 C 611.08 829.64 617.18 819.87 625.75 813.75 C 634.33 807.63 639.58 794.09 649.00 791.00
C 649.00 791.00 648.80 790.40 649.00 790.00
C 652.83 782.17 662.74 777.07 668.25 770.25 C 673.75 763.42 681.63 756.89 688.00 751.00
C 690.06 748.78 695.42 745.32 696.70 742.70 C 697.98 740.08 704.00 736.67 704.00 734.00
C 696.03 729.03 691.35 717.54 682.00 716.00
C 683.12 710.33 672.91 704.14 667.75 698.25 C 662.59 692.36 655.42 686.13 649.75 680.25 C 644.09 674.36 637.71 668.05 631.75 662.25 C 625.80 656.45 619.96 649.84 613.75 644.25 C 607.54 638.66 602.08 629.58 594.00 628.00
C 596.39 626.84 595.18 625.79 594.00 624.00
C 590.64 621.10 587.19 617.16 584.00 614.00
C 580.92 612.33 579.11 608.73 576.00 607.00
C 573.07 611.17 568.74 614.54 565.00 618.00 Z"/>
</g>
<g fill="None" fill-opacity="0.0" stroke="#13A387" stroke-opacity="0.83" stroke-width="0.3"><path d="
M 790.00 698.00 
C 800.62 691.43 807.75 679.50 817.25 671.25 C 826.74 662.99 835.74 652.48 845.00 644.00
C 854.89 633.41 861.90 620.47 867.00 607.00
C 856.81 622.63 846.58 641.69 831.75 655.75 C 816.92 669.81 802.33 682.17 790.00 698.00 Z"/>
</g>
<g fill="None" fill-opacity="0.0" stroke="#11A58A" stroke-opacity="0.67" stroke-width="0.3"><path d="
M 557.00 624.00 
C 535.26 642.58 516.29 665.02 496.25 685.25 C 476.20 705.47 447.98 727.17 447.00 756.00
C 455.33 723.39 478.26 705.77 499.92 682.92 C 521.58 660.07 545.23 641.24 565.00 618.00
C 565.41 617.52 565.52 616.51 566.00 616.00
C 563.04 618.53 560.01 621.43 557.00 624.00 Z"/>
</g>
<g fill="None" fill-opacity="0.0" stroke="#1ABCA3" stroke-opacity="0.09" stroke-width="0.3"><path d="
M 704.00 734.00 
C 704.00 728.98 692.90 724.41 690.25 719.75 C 687.59 715.09 680.50 710.87 676.75 706.25 C 673.00 701.63 666.94 696.85 662.75 692.25 C 658.56 687.64 653.66 683.35 649.25 678.75 C 644.83 674.16 639.75 669.34 635.25 664.75 C 630.74 660.16 626.30 655.83 621.75 651.25 C 617.21 646.66 612.30 641.83 607.75 637.25 C 603.21 632.66 598.83 628.17 594.00 624.00
C 595.18 625.79 596.39 626.84 594.00 628.00
C 602.08 629.58 607.54 638.66 613.75 644.25 C 619.96 649.84 625.80 656.45 631.75 662.25 C 637.71 668.05 644.09 674.36 649.75 680.25 C 655.42 686.13 662.59 692.36 667.75 698.25 C 672.91 704.14 683.12 710.33 682.00 716.00
C 691.35 717.54 696.03 729.03 704.00 734.00 Z"/>
</g>
<g fill="None" fill-opacity="0.0" stroke="#11A489" stroke-opacity="0.66" stroke-width="0.3"><path d="
M 790.00 698.00 
C 789.68 698.20 789.20 698.68 789.00 699.00
C 781.28 711.48 767.09 720.20 757.25 731.25 C 747.40 742.30 735.44 753.56 725.00 764.00
C 752.81 736.19 782.81 709.78 808.00 682.00
C 818.40 670.52 830.11 659.89 841.00 649.00
C 842.30 647.48 843.59 645.51 845.00 644.00
C 835.74 652.48 826.74 662.99 817.25 671.25 C 807.75 679.50 800.62 691.43 790.00 698.00 Z"/>
</g>
<g fill="None" fill-opacity="0.0" stroke="#1DBA9E" stroke-opacity="0.04" stroke-width="0.3"><path d="
M 808.00 682.00 
C 819.12 671.51 831.01 660.69 841.00 649.00
C 830.11 659.89 818.40 670.52 808.00 682.00 Z"/>
</g>
<g fill="None" fill-opacity="0.0" stroke="#139AE4" stroke-opacity="0.02" stroke-width="0.3"><path d="
M 145.00 706.00 
C 146.91 691.68 146.00 675.15 146.00 660.00
C 142.96 673.85 145.22 691.19 145.00 706.00 Z"/>
</g>
<g fill="None" fill-opacity="0.0" stroke="#0A7CC5" stroke-opacity="0.97" stroke-width="0.3"><path d="
M 286.00 676.00 
C 286.47 676.13 287.50 676.00 288.00 676.00
C 309.33 676.00 330.67 675.99 352.00 676.00
C 352.00 676.00 352.50 676.02 353.00 676.00
C 348.86 671.70 334.89 676.47 329.00 675.00 C 323.11 673.53 310.51 675.98 305.00 675.00 C 299.49 674.02 285.49 675.47 286.00 676.00 Z"/>
</g>
<g fill="None" fill-opacity="0.0" stroke="#0C97D9" stroke-opacity="0.11" stroke-width="0.3"><path d="
M 352.00 676.00 
C 330.67 675.99 309.33 676.00 288.00 676.00
C 293.74 678.58 302.52 676.00 309.00 677.00 C 315.48 678.00 325.00 675.48 331.00 677.00 C 336.99 678.53 338.28 676.05 346.00 678.00
C 343.48 678.47 339.78 676.97 338.00 679.00
C 343.00 679.00 348.00 679.00 353.00 679.00
C 352.27 678.21 352.40 676.82 352.00 676.00 Z"/>
</g>
<g fill="None" fill-opacity="0.0" stroke="#00D5FF" stroke-opacity="0.00" stroke-width="0.3"><path d="
M 305.00 678.00 
C 300.49 678.59 294.75 676.78 291.00 679.00
C 295.51 678.41 301.25 680.22 305.00 678.00 Z"/>
</g>
<g fill="None" fill-opacity="0.0" stroke="#00B0FF" stroke-opacity="0.01" stroke-width="0.3"><path d="
M 329.00 678.00 
C 322.82 678.63 315.42 676.72 310.00 679.00
C 316.18 678.37 323.58 680.28 329.00 678.00 Z"/>
</g>
<g fill="None" fill-opacity="0.0" stroke="#109F82" stroke-opacity="1.00" stroke-width="0.3"><path d="
M 702.00 786.00 
C 709.46 778.62 717.63 771.37 725.00 764.00
C 735.44 753.56 747.40 742.30 757.25 731.25 C 767.09 720.20 781.28 711.48 789.00 699.00
C 773.12 711.37 759.83 728.20 745.25 742.25 C 730.66 756.30 715.20 770.70 702.00 786.00 Z"/>
</g>
<g fill="None" fill-opacity="0.0" stroke="#068CD3" stroke-opacity="0.68" stroke-width="0.3"><path d="
M 377.00 738.00 
C 377.33 736.72 378.65 735.51 378.00 734.00
C 369.04 733.47 359.94 734.71 351.00 734.00
C 317.88 731.37 287.46 735.58 255.00 733.00
C 248.95 733.11 241.08 733.59 235.00 733.00
C 232.09 733.00 228.88 733.38 226.00 733.00
C 227.81 736.99 237.52 734.52 244.00 735.00 C 250.48 735.48 259.05 734.78 266.00 735.00 C 272.95 735.22 280.84 734.90 288.00 735.00 C 295.16 735.10 302.75 734.96 310.00 735.00 C 317.25 735.05 324.70 734.98 332.00 735.00 C 339.30 735.02 346.69 734.99 354.00 735.00 C 361.31 735.01 368.68 734.99 376.00 735.00
C 375.23 736.23 376.83 737.40 377.00 738.00 Z"/>
</g>
<g fill="None" fill-opacity="0.0" stroke="#009AFD" stroke-opacity="0.01" stroke-width="0.3"><path d="
M 255.00 733.00 
C 248.43 732.48 241.60 733.00 235.00 733.00
C 241.08 733.59 248.95 733.11 255.00 733.00 Z"/>
</g>
<g fill="None" fill-opacity="0.0" stroke="#109DDF" stroke-opacity="0.03" stroke-width="0.3"><path d="
M 351.00 734.00 
C 359.94 734.71 369.04 733.47 378.00 734.00
C 376.58 730.71 367.18 734.23 364.00 733.00 C 360.82 731.77 353.70 733.95 351.00 734.00 Z"/>
</g>
<g fill="None" fill-opacity="0.0" stroke="#13CAB0" stroke-opacity="0.03" stroke-width="0.3"><path d="
M 649.00 790.00 
C 663.20 780.04 676.21 763.76 688.00 751.00
C 681.63 756.89 673.75 763.42 668.25 770.25 C 662.74 777.07 652.83 782.17 649.00 790.00 Z"/>
</g>
<g fill="None" fill-opacity="0.0" stroke="#0FA68C" stroke-opacity="0.55" stroke-width="0.3"><path d="
M 702.00 786.00 
C 683.43 807.52 660.82 826.99 641.00 847.00
C 638.26 849.77 635.49 853.08 633.00 856.00
C 663.45 825.55 694.45 794.55 725.00 764.00
C 717.63 771.37 709.46 778.62 702.00 786.00 Z"/>
</g>
<g fill="None" fill-opacity="0.0" stroke="#10967F" stroke-opacity="0.92" stroke-width="0.3"><path d="
M 411.00 769.00 
C 411.26 773.30 411.00 777.69 411.00 782.00
C 411.00 783.00 411.00 784.00 411.00 785.00
C 411.57 779.09 411.58 771.98 411.00 766.00
C 410.91 767.50 410.92 767.58 411.00 769.00 Z"/>
</g>
<g fill="None" fill-opacity="0.0" stroke="#14C4AF" stroke-opacity="0.04" stroke-width="0.3"><path d="
M 411.00 782.00 
C 411.00 777.69 411.26 773.30 411.00 769.00
C 410.69 773.12 410.05 777.68 411.00 782.00 Z"/>
</g>
<g fill="None" fill-opacity="0.0" stroke="#00A9EB" stroke-opacity="0.01" stroke-width="0.3"><path d="
M 306.00 797.00 
C 304.13 797.39 301.14 796.13 300.00 798.00
C 308.97 797.41 317.89 799.54 326.00 797.00
C 320.35 796.75 314.65 797.34 309.00 797.00
C 307.44 796.91 307.50 796.87 306.00 797.00 Z"/>
</g>
<g fill="None" fill-opacity="0.0" stroke="#000000" stroke-opacity="0.00" stroke-width="0.3"><path d="
M 373.00 796.00 
C 371.34 794.34 373.61 796.61 373.00 796.00 Z"/>
</g>
<g fill="None" fill-opacity="0.0" stroke="#12A58F" stroke-opacity="0.61" stroke-width="0.3"><path d="
M 416.00 813.00 
C 415.52 807.67 415.06 800.44 412.00 796.00
C 413.91 799.00 410.45 811.42 414.00 805.00
C 413.43 807.94 415.31 810.74 416.00 813.00 Z"/>
</g>
<g fill="None" fill-opacity="0.0" stroke="#00AFFF" stroke-opacity="0.01" stroke-width="0.3"><path d="
M 283.00 797.00 
C 276.49 797.63 268.75 795.72 263.00 798.00
C 269.51 797.37 277.25 799.28 283.00 797.00 Z"/>
</g>
<g fill="None" fill-opacity="0.0" stroke="#00BCFC" stroke-opacity="0.01" stroke-width="0.3"><path d="
M 299.00 797.00 
C 294.16 797.60 288.09 795.76 284.00 798.00
C 288.84 797.40 294.91 799.24 299.00 797.00 Z"/>
</g>
<g fill="None" fill-opacity="0.0" stroke="#017574" stroke-opacity="0.02" stroke-width="0.3"><path d="
M 418.00 828.00 
C 420.37 826.78 419.24 824.28 419.00 823.00
C 417.46 821.59 416.60 826.54 418.00 828.00 Z"/>
</g>
<g fill="None" fill-opacity="0.0" stroke="#119E83" stroke-opacity="0.73" stroke-width="0.3"><path d="
M 601.00 884.00 
C 613.32 875.80 624.05 866.47 633.00 856.00
C 635.49 853.08 638.26 849.77 641.00 847.00
C 627.79 858.40 611.33 873.03 601.00 884.00 Z"/>
</g>
<g fill="None" fill-opacity="0.0" stroke="#14AA8D" stroke-opacity="0.62" stroke-width="0.3"><path d="
M 543.00 869.00 
C 534.63 869.66 524.98 869.57 517.00 868.00
C 520.85 869.61 519.00 869.70 525.00 871.00 C 531.00 872.30 540.91 869.87 543.00 869.00 Z"/>
</g>
<g fill="None" fill-opacity="0.0" stroke="#00BF80" stroke-opacity="0.02" stroke-width="0.3"><path d="
M 483.00 893.00 
C 482.19 892.18 483.74 893.75 483.00 893.00 Z"/>
</g>
<g fill="None" fill-opacity="0.0" stroke="#129B80" stroke-opacity="0.80" stroke-width="0.3"><path d="
M 502.00 899.00 
C 503.56 899.46 504.28 899.87 506.00 900.00
C 506.92 900.07 509.23 899.53 510.00 900.00
C 511.44 897.33 502.90 899.06 502.00 899.00 Z"/>
</g>
<g fill="None" fill-opacity="0.0" stroke="#029288" stroke-opacity="0.05" stroke-width="0.3"><path d="
M 510.00 901.00 
C 510.00 901.00 509.79 900.39 510.00 900.00
C 509.23 899.53 506.92 900.07 506.00 900.00
C 505.15 901.41 503.15 901.72 504.00 904.00
C 505.74 901.44 507.99 902.92 510.00 901.00 Z"/>
</g>
<g fill="None" fill-opacity="0.0" stroke="#12A285" stroke-opacity="0.65" stroke-width="0.3"><path d="
M 517.00 902.00 
C 519.47 902.38 521.37 902.86 524.00 903.00
C 523.77 902.95 522.81 900.51 521.00 901.00 C 519.20 901.50 518.00 901.96 517.00 902.00 Z"/>
</g>
<g fill="#000000" fill-opacity="0.00" stroke="None">
<path d="
M 0.00 1024.00 
L 1024.00 1024.00
L 1024.00 0.00
L 0.00 0.00
L 0.00 1024.00
M 304.00 272.00 
C 299.86 264.37 290.40 259.04 291.01 246.99 C 291.61 234.95 290.49 218.31 291.00 206.00 C 291.51 193.69 290.12 176.91 291.33 165.33 C 292.54 153.75 300.86 146.73 311.07 144.07 C 321.29 141.42 332.84 145.33 338.77 155.23 C 344.70 165.13 342.79 179.73 343.00 192.00 C 343.21 204.27 342.71 220.65 343.00 233.00 C 343.29 245.35 343.63 257.07 335.25 266.25 C 326.87 275.42 314.11 272.59 304.00 272.00
M 601.00 250.00 
C 601.10 249.52 601.00 249.00 601.00 249.00
C 596.69 243.17 601.58 230.23 600.00 223.00 C 598.42 215.77 600.56 206.00 601.00 199.00
C 600.43 187.58 599.13 176.73 601.00 165.00
C 603.93 146.59 626.52 135.62 642.25 148.75 C 657.98 161.89 651.19 189.74 652.00 209.00 C 652.81 228.26 655.88 255.22 641.75 268.75 C 627.62 282.28 597.61 266.38 601.00 250.00
M 356.00 252.00 
C 356.02 251.50 356.00 251.00 356.00 251.00
C 356.00 243.38 355.57 233.38 356.00 226.00 C 356.43 218.62 353.14 207.28 360.00 207.00
C 436.22 203.93 512.66 209.24 588.00 207.00
C 585.80 229.85 582.61 263.39 603.23 277.77 C 623.85 292.15 647.70 284.14 661.00 265.00
C 663.67 259.95 664.78 253.82 665.00 248.00
C 665.52 234.29 665.29 219.72 664.00 207.00
C 665.16 207.79 666.53 205.04 667.00 207.00
C 678.15 204.27 692.95 208.20 705.00 207.00 C 717.05 205.81 732.61 207.06 744.00 208.00 C 755.40 208.93 762.62 217.84 773.00 218.00
C 771.87 222.29 780.70 226.62 784.77 232.23 C 788.84 237.84 793.32 244.14 796.32 250.68 C 799.32 257.22 800.67 268.39 805.00 272.00
C 800.95 285.46 803.54 301.70 803.00 317.00 C 802.46 332.30 803.32 349.60 803.00 365.00 C 802.68 380.40 803.31 396.33 803.00 411.00
C 798.20 408.71 790.73 404.40 788.00 408.00
C 786.91 403.27 779.29 403.52 773.98 402.02 C 768.66 400.53 761.03 401.52 756.00 400.00
C 751.30 399.69 745.55 401.13 741.00 400.00
C 736.22 398.81 740.43 383.34 739.00 378.00
C 735.41 374.98 724.09 380.35 718.78 378.22 C 713.47 376.09 706.49 379.87 700.97 378.02 C 695.45 376.17 688.04 380.43 682.00 379.00 C 675.96 377.57 670.16 379.03 663.78 378.78 C 657.40 378.53 647.41 377.38 641.00 378.00 C 634.59 378.62 628.76 377.93 622.75 378.20 C 616.75 378.46 610.99 378.24 604.97 378.02 C 598.96 377.80 591.84 379.03 586.77 378.21 C 581.70 377.40 577.43 380.19 572.00 379.00 C 566.57 377.81 560.29 379.27 554.00 379.00 C 547.71 378.73 542.41 378.14 535.75 378.80 C 529.10 379.46 522.19 377.79 515.00 378.00 C 507.80 378.21 502.34 379.23 494.92 378.94 C 487.50 378.64 482.73 378.75 475.00 379.00 C 467.27 379.25 464.20 378.58 455.25 378.61 C 446.30 378.63 432.24 378.58 422.92 378.93 C 413.60 379.28 413.08 378.81 405.00 379.00 C 396.92 379.19 393.46 378.49 385.98 378.02 C 378.49 377.56 374.64 379.65 366.92 378.94 C 359.20 378.22 358.50 379.45 348.99 378.99 C 339.48 378.53 326.71 378.41 316.99 378.99 C 307.27 379.58 305.10 378.35 297.25 378.61 C 289.39 378.86 285.64 378.44 278.00 379.00
C 273.44 379.34 270.72 378.46 267.00 378.00
C 261.90 378.29 255.83 377.72 250.00 378.00 C 244.16 378.28 235.59 377.71 229.98 378.98 C 224.36 380.24 214.66 374.34 210.00 379.00
C 208.00 381.76 210.94 393.85 210.00 401.00 C 209.06 408.15 210.42 418.98 210.00 427.00 C 209.58 435.02 210.18 444.53 210.00 453.00 C 209.82 461.47 210.09 471.35 210.00 480.00 C 209.91 488.65 210.04 497.30 210.00 506.00 C 209.96 514.70 210.02 523.23 210.00 532.00 C 209.98 540.77 210.01 550.22 210.00 559.00 C 209.99 567.78 210.02 576.24 210.00 585.00 C 209.98 593.76 210.04 602.21 210.00 611.00 C 209.96 619.79 210.07 629.20 210.00 638.00 C 209.93 646.80 210.17 655.23 210.00 664.00 C 209.83 672.77 210.37 681.20 210.00 690.00 C 209.63 698.80 210.80 708.20 210.00 717.00
C 210.95 725.25 217.81 731.91 226.00 733.00
C 228.88 733.38 232.09 733.00 235.00 733.00
C 241.60 733.00 248.43 732.48 255.00 733.00
C 287.46 735.58 317.88 731.37 351.00 734.00
C 353.70 733.95 360.82 731.77 364.00 733.00 C 367.18 734.23 376.58 730.71 378.00 734.00
C 378.65 735.51 377.33 736.72 377.00 738.00
C 375.65 743.23 373.93 751.74 374.00 757.00 C 374.08 762.27 372.55 770.15 376.00 771.00
C 368.52 777.86 383.22 801.12 367.00 798.00
C 371.01 795.33 363.93 795.26 365.00 799.00
C 358.21 793.87 347.18 796.24 338.00 796.00 C 328.82 795.76 317.43 795.35 309.00 797.00
C 314.65 797.34 320.35 796.75 326.00 797.00
C 317.89 799.54 308.97 797.41 300.00 798.00
C 301.14 796.13 304.13 797.39 306.00 797.00
C 286.51 795.54 265.23 796.01 245.00 796.00
C 253.91 798.22 244.79 798.09 240.00 798.00
C 247.60 795.42 233.72 795.35 228.00 796.00 C 222.28 796.65 213.33 794.88 207.78 793.22 C 202.23 791.56 196.08 789.70 190.92 787.08 C 185.77 784.45 181.50 781.52 177.25 777.75 C 173.00 773.98 168.97 771.25 165.25 766.75 C 161.52 762.25 158.75 758.18 156.08 752.92 C 153.40 747.67 150.67 742.84 149.07 736.93 C 147.48 731.01 145.58 723.58 146.00 717.00
C 145.74 713.13 144.95 709.45 145.00 706.00
C 145.22 691.19 142.96 673.85 146.00 660.00
C 146.00 659.00 146.00 658.00 146.00 657.00
C 140.70 632.85 146.17 602.36 146.00 578.00
C 145.79 575.97 145.16 574.20 145.00 572.00
C 144.73 568.38 145.00 564.63 145.00 561.00
C 145.00 559.00 145.00 557.00 145.00 555.00
C 145.00 550.67 144.87 546.32 145.00 542.00
C 145.18 535.86 145.41 529.29 146.00 523.00
C 145.91 493.88 144.40 462.88 145.00 433.00
C 145.06 430.12 145.76 427.57 146.00 425.00
C 145.93 402.19 145.49 377.57 145.00 354.00 C 144.51 330.43 147.15 304.68 146.00 282.00
C 145.24 277.25 144.95 280.60 146.00 276.00
C 145.48 267.08 149.46 256.67 152.92 248.92 C 156.39 241.18 161.32 235.34 167.25 229.25 C 173.17 223.16 179.17 218.28 187.23 214.23 C 195.29 210.18 204.30 207.63 214.00 207.00 C 223.70 206.37 238.06 207.76 248.00 207.00 C 257.94 206.24 273.03 209.68 278.00 204.00
C 280.89 226.66 271.90 264.13 296.75 279.25 C 321.59 294.38 351.26 278.71 356.00 252.00
M 170.00 224.00 
C 170.74 224.74 169.18 223.18 170.00 224.00
M 766.00 437.00 
C 769.45 437.55 772.64 438.27 776.00 439.00
C 816.95 447.92 849.86 478.16 866.00 516.00
C 866.80 517.88 868.32 519.77 869.00 522.00
C 869.49 523.60 869.51 525.38 870.00 527.00
C 871.11 530.72 872.29 534.10 873.00 538.00
C 877.24 561.21 875.15 585.45 867.00 607.00
C 861.90 620.47 854.89 633.41 845.00 644.00
C 843.59 645.51 842.30 647.48 841.00 649.00
C 831.01 660.69 819.12 671.51 808.00 682.00
C 782.81 709.78 752.81 736.19 725.00 764.00
C 694.45 794.55 663.45 825.55 633.00 856.00
C 624.05 866.47 613.32 875.80 601.00 884.00
C 577.53 899.61 551.60 904.50 524.00 903.00
C 521.37 902.86 519.47 902.38 517.00 902.00
C 514.62 901.64 512.16 902.14 510.00 901.00
C 507.99 902.92 505.74 901.44 504.00 904.00
C 503.15 901.72 505.15 901.41 506.00 900.00
C 504.28 899.87 503.56 899.46 502.00 899.00
C 467.41 888.87 435.64 863.32 422.00 829.00
C 421.05 831.61 418.77 830.13 418.00 828.00
C 416.60 826.54 417.46 821.59 419.00 823.00
C 418.42 819.86 416.94 816.10 416.00 813.00
C 415.31 810.74 413.43 807.94 414.00 805.00
C 410.45 811.42 413.91 799.00 412.00 796.00
C 411.26 794.92 411.43 793.17 409.00 794.00
C 410.91 792.39 411.45 789.09 411.00 785.00
C 411.00 784.00 411.00 783.00 411.00 782.00
C 410.05 777.68 410.69 773.12 411.00 769.00
C 410.92 767.58 410.91 767.50 411.00 766.00
C 414.12 713.61 455.75 673.54 492.75 638.75 C 529.75 603.96 560.85 567.24 597.75 533.75 C 634.65 500.26 664.89 452.58 712.00 440.00
C 719.40 438.02 727.19 436.42 735.00 436.00
C 745.59 435.43 755.24 435.29 766.00 437.00
M 368.00 460.00 
C 370.50 478.34 370.76 503.46 368.00 522.00
C 367.59 524.77 365.97 527.52 367.00 530.00
C 353.19 545.23 330.03 534.11 312.00 538.00 C 293.97 541.89 269.24 535.30 273.00 514.00 C 276.76 492.70 267.12 471.75 275.31 453.31 C 283.49 434.86 310.00 446.28 325.00 444.00 C 340.00 441.72 366.07 440.09 368.00 460.00
M 448.00 443.00 
C 463.21 443.13 474.06 446.38 491.00 444.00 C 507.94 441.62 527.19 448.79 523.00 469.00 C 518.81 489.21 527.24 506.34 522.67 524.67 C 518.10 543.00 495.04 539.09 481.00 538.00 C 466.96 536.91 443.27 544.38 432.75 532.25 C 422.24 520.12 430.65 495.38 428.00 480.00 C 425.35 464.62 428.57 442.83 448.00 443.00
M 273.00 525.00 
C 274.79 526.79 272.23 524.23 273.00 525.00
M 274.00 529.00 
C 274.61 529.61 272.34 527.34 274.00 529.00
M 354.00 584.00 
C 362.34 585.73 366.13 590.90 368.00 599.00
C 368.40 600.74 368.81 602.13 369.00 604.00
C 370.65 620.32 370.11 640.50 368.00 656.00
C 368.00 657.33 368.05 658.67 368.00 660.00
C 367.71 667.74 361.01 675.70 353.00 676.00
C 352.50 676.02 352.00 676.00 352.00 676.00
C 352.40 676.82 352.27 678.21 353.00 679.00
C 348.00 679.00 343.00 679.00 338.00 679.00
C 339.78 676.97 343.48 678.47 346.00 678.00
C 338.28 676.05 336.99 678.53 331.00 677.00 C 325.00 675.48 315.48 678.00 309.00 677.00 C 302.52 676.00 293.74 678.58 288.00 676.00
C 287.50 676.00 286.47 676.13 286.00 676.00
C 280.49 674.49 277.00 669.81 275.00 665.00
C 274.69 664.24 274.15 664.20 274.00 663.00
C 271.67 661.45 273.09 652.65 273.00 646.00 C 272.91 639.35 272.63 630.07 273.00 623.00 C 273.37 615.93 271.91 607.10 273.00 600.00
C 273.19 598.76 273.64 598.18 274.00 597.00
C 274.62 594.99 275.18 593.70 276.00 592.00
C 277.48 588.92 279.16 587.97 282.00 585.00
C 279.63 583.37 283.54 584.95 283.00 585.00
C 284.72 583.97 286.02 584.15 288.00 584.00
C 298.03 582.13 310.21 582.93 321.00 583.00 C 331.79 583.07 344.06 581.94 354.00 584.00
M 305.00 678.00 
C 301.25 680.22 295.51 678.41 291.00 679.00
C 294.75 676.78 300.49 678.59 305.00 678.00
M 329.00 678.00 
C 323.58 680.28 316.18 678.37 310.00 679.00
C 315.42 676.72 322.82 678.63 329.00 678.00
M 283.00 797.00 
C 277.25 799.28 269.51 797.37 263.00 798.00
C 268.75 795.72 276.49 797.63 283.00 797.00
M 299.00 797.00 
C 294.91 799.24 288.84 797.40 284.00 798.00
C 288.09 795.76 294.16 797.60 299.00 797.00
M 483.00 893.00 
C 483.74 893.75 482.19 892.18 483.00 893.00 Z"/>
</g>
<g fill="#0E96E1" fill-opacity="0.96" stroke="None">
<path d="
M 304.00 272.00 
C 314.11 272.59 326.87 275.42 335.25 266.25 C 343.63 257.07 343.29 245.35 343.00 233.00 C 342.71 220.65 343.21 204.27 343.00 192.00 C 342.79 179.73 344.70 165.13 338.77 155.23 C 332.84 145.33 321.29 141.42 311.07 144.07 C 300.86 146.73 292.54 153.75 291.33 165.33 C 290.12 176.91 291.51 193.69 291.00 206.00 C 290.49 218.31 291.61 234.95 291.01 246.99 C 290.40 259.04 299.86 264.37 304.00 272.00 Z"/>
</g>
<g fill="#0E96E1" fill-opacity="0.98" stroke="None">
<path d="
M 601.00 165.00 
C 602.15 191.95 604.24 223.18 601.00 250.00
C 597.61 266.38 627.62 282.28 641.75 268.75 C 655.88 255.22 652.81 228.26 652.00 209.00 C 651.19 189.74 657.98 161.89 642.25 148.75 C 626.52 135.62 603.93 146.59 601.00 165.00 Z"/>
</g>
<g fill="#0686D1" fill-opacity="0.75" stroke="None">
<path d="
M 601.00 199.00 
C 601.83 215.57 600.98 232.40 601.00 249.00
C 601.00 249.00 601.10 249.52 601.00 250.00
C 604.24 223.18 602.15 191.95 601.00 165.00
C 599.13 176.73 600.43 187.58 601.00 199.00 Z"/>
</g>
<g fill="#139DE7" fill-opacity="0.02" stroke="None">
<path d="
M 601.00 249.00 
C 600.98 232.40 601.83 215.57 601.00 199.00
C 600.56 206.00 598.42 215.77 600.00 223.00 C 601.58 230.23 596.69 243.17 601.00 249.00 Z"/>
</g>
<g fill="#0E97E2" fill-opacity="0.99" stroke="None">
<path d="
M 146.00 276.00 
C 148.82 323.91 146.93 373.22 147.00 422.00 C 147.07 470.78 148.17 521.20 147.00 570.00 C 145.83 618.80 150.63 669.20 146.00 717.00
C 145.58 723.58 147.48 731.01 149.07 736.93 C 150.67 742.84 153.40 747.67 156.08 752.92 C 158.75 758.18 161.52 762.25 165.25 766.75 C 168.97 771.25 173.00 773.98 177.25 777.75 C 181.50 781.52 185.77 784.45 190.92 787.08 C 196.08 789.70 202.23 791.56 207.78 793.22 C 213.33 794.88 222.28 796.65 228.00 796.00 C 233.72 795.35 247.60 795.42 240.00 798.00
C 244.79 798.09 253.91 798.22 245.00 796.00
C 265.23 796.01 286.51 795.54 306.00 797.00
C 307.50 796.87 307.44 796.91 309.00 797.00
C 317.43 795.35 328.82 795.76 338.00 796.00 C 347.18 796.24 358.21 793.87 365.00 799.00
C 363.93 795.26 371.01 795.33 367.00 798.00
C 383.22 801.12 368.52 777.86 376.00 771.00
C 372.55 770.15 374.08 762.27 374.00 757.00 C 373.93 751.74 375.65 743.23 377.00 738.00
C 376.83 737.40 375.23 736.23 376.00 735.00
C 368.68 734.99 361.31 735.01 354.00 735.00 C 346.69 734.99 339.30 735.02 332.00 735.00 C 324.70 734.98 317.25 735.05 310.00 735.00 C 302.75 734.96 295.16 735.10 288.00 735.00 C 280.84 734.90 272.95 735.22 266.00 735.00 C 259.05 734.78 250.48 735.48 244.00 735.00 C 237.52 734.52 227.81 736.99 226.00 733.00
C 217.81 731.91 210.95 725.25 210.00 717.00
C 209.99 716.94 209.00 717.00 209.00 717.00
C 204.14 712.29 209.53 699.17 208.00 692.00 C 206.47 684.83 208.69 674.01 208.00 666.00 C 207.31 657.99 208.31 648.41 208.00 640.00 C 207.69 631.59 208.13 622.64 208.00 614.00 C 207.87 605.36 208.06 595.71 208.00 587.00 C 207.94 578.29 208.03 569.70 208.00 561.00 C 207.97 552.30 208.01 543.72 208.00 535.00 C 207.99 526.28 208.01 517.77 208.00 509.00 C 207.99 500.23 208.00 490.78 208.00 482.00 C 208.00 473.22 208.00 464.74 208.00 456.00 C 208.00 447.26 208.00 438.75 208.00 430.00 C 208.00 421.25 208.00 412.82 208.00 404.00 C 208.00 395.18 208.00 385.86 208.00 377.00
C 385.66 377.00 563.33 377.00 741.00 377.00
C 741.00 384.33 741.00 391.67 741.00 399.00
C 745.83 399.65 751.99 397.69 756.00 400.00
C 761.03 401.52 768.66 400.53 773.98 402.02 C 779.29 403.52 786.91 403.27 788.00 408.00
C 790.73 404.40 798.20 408.71 803.00 411.00
C 803.31 396.33 802.68 380.40 803.00 365.00 C 803.32 349.60 802.46 332.30 803.00 317.00 C 803.54 301.70 800.95 285.46 805.00 272.00
C 800.67 268.39 799.32 257.22 796.32 250.68 C 793.32 244.14 788.84 237.84 784.77 232.23 C 780.70 226.62 771.87 222.29 773.00 218.00
C 762.62 217.84 755.40 208.93 744.00 208.00 C 732.61 207.06 717.05 205.81 705.00 207.00 C 692.95 208.20 678.15 204.27 667.00 207.00
C 666.65 207.09 666.05 207.65 666.00 208.00
C 668.71 217.06 666.07 230.35 667.00 240.00 C 667.93 249.65 666.06 260.23 661.00 265.00
C 647.70 284.14 623.85 292.15 603.23 277.77 C 582.61 263.39 585.80 229.85 588.00 207.00
C 512.66 209.24 436.22 203.93 360.00 207.00
C 356.02 208.99 358.42 218.02 358.00 222.00 C 357.58 225.98 358.01 235.49 358.00 239.00 C 357.99 242.51 358.46 254.07 356.00 252.00
C 351.26 278.71 321.59 294.38 296.75 279.25 C 271.90 264.13 280.89 226.66 278.00 204.00
C 273.03 209.68 257.94 206.24 248.00 207.00 C 238.06 207.76 223.70 206.37 214.00 207.00 C 204.30 207.63 195.29 210.18 187.23 214.23 C 179.17 218.28 173.17 223.16 167.25 229.25 C 161.32 235.34 156.39 241.18 152.92 248.92 C 149.46 256.67 145.48 267.08 146.00 276.00
M 373.00 796.00 
C 373.61 796.61 371.34 794.34 373.00 796.00 Z"/>
</g>
<g fill="#1795E0" fill-opacity="0.05" stroke="None">
<path d="
M 356.00 251.00 
C 359.79 245.88 355.84 236.64 357.00 230.00 C 358.16 223.36 356.13 213.90 357.00 207.00
C 358.00 207.00 359.00 207.00 360.00 207.00
C 353.14 207.28 356.43 218.62 356.00 226.00 C 355.57 233.38 356.00 243.38 356.00 251.00 Z"/>
</g>
<g fill="#139FE5" fill-opacity="0.06" stroke="None">
<path d="
M 665.00 248.00 
C 666.79 235.50 664.13 221.00 666.00 208.00
C 666.05 207.65 666.65 207.09 667.00 207.00
C 666.53 205.04 665.16 207.79 664.00 207.00
C 665.29 219.72 665.52 234.29 665.00 248.00 Z"/>
</g>
<g fill="#0D7BC2" fill-opacity="0.96" stroke="None">
<path d="
M 356.00 251.00 
C 356.00 251.00 356.02 251.50 356.00 252.00
C 358.46 254.07 357.99 242.51 358.00 239.00 C 358.01 235.49 357.58 225.98 358.00 222.00 C 358.42 218.02 356.02 208.99 360.00 207.00
C 359.00 207.00 358.00 207.00 357.00 207.00
C 356.13 213.90 358.16 223.36 357.00 230.00 C 355.84 236.64 359.79 245.88 356.00 251.00 Z"/>
</g>
<g fill="#0C80C9" fill-opacity="0.88" stroke="None">
<path d="
M 665.00 248.00 
C 664.78 253.82 663.67 259.95 661.00 265.00
C 666.06 260.23 667.93 249.65 667.00 240.00 C 666.07 230.35 668.71 217.06 666.00 208.00
C 664.13 221.00 666.79 235.50 665.00 248.00 Z"/>
</g>
<g fill="#00AAAA" fill-opacity="0.01" stroke="None">
<path d="
M 170.00 224.00 
C 169.18 223.18 170.74 224.74 170.00 224.00 Z"/>
</g>
<g fill="#0A81C8" fill-opacity="0.82" stroke="None">
<path d="
M 146.00 282.00 
C 148.46 297.33 145.21 313.39 146.00 329.00 C 146.79 344.61 146.25 361.26 146.00 377.00 C 145.75 392.74 147.47 409.32 146.00 425.00
C 145.76 427.57 145.06 430.12 145.00 433.00
C 147.17 461.16 148.71 494.16 146.00 523.00
C 145.41 529.29 145.18 535.86 145.00 542.00
C 145.30 546.01 145.39 551.03 145.00 555.00
C 145.00 557.00 145.00 559.00 145.00 561.00
C 145.31 564.23 145.07 568.94 145.00 572.00
C 145.16 574.20 145.79 575.97 146.00 578.00
C 148.63 603.72 146.00 631.13 146.00 657.00
C 146.00 658.00 146.00 659.00 146.00 660.00
C 146.00 675.15 146.91 691.68 145.00 706.00
C 144.95 709.45 145.74 713.13 146.00 717.00
C 150.63 669.20 145.83 618.80 147.00 570.00 C 148.17 521.20 147.07 470.78 147.00 422.00 C 146.93 373.22 148.82 323.91 146.00 276.00
C 144.95 280.60 145.24 277.25 146.00 282.00 Z"/>
</g>
<g fill="#1898D9" fill-opacity="0.02" stroke="None">
<path d="
M 146.00 425.00 
C 147.47 409.32 145.75 392.74 146.00 377.00 C 146.25 361.26 146.79 344.61 146.00 329.00 C 145.21 313.39 148.46 297.33 146.00 282.00
C 147.15 304.68 144.51 330.43 145.00 354.00 C 145.49 377.57 145.93 402.19 146.00 425.00 Z"/>
</g>
<g fill="#068BD0" fill-opacity="0.74" stroke="None">
<path d="
M 209.00 717.00 
C 208.00 705.94 209.43 695.17 209.00 684.00 C 208.57 672.84 209.19 661.25 209.00 650.00 C 208.81 638.75 209.07 627.29 209.00 616.00 C 208.93 604.71 209.01 593.29 209.00 582.00 C 208.99 570.71 208.94 559.27 209.00 548.00 C 209.06 536.73 208.84 525.21 209.00 514.00 C 209.16 502.79 208.63 491.06 209.00 480.00 C 209.37 468.94 208.17 456.72 209.00 446.00 C 209.83 435.28 207.15 421.99 209.00 412.00 C 210.85 402.01 204.44 386.67 210.00 379.00
C 214.66 374.34 224.36 380.24 229.98 378.98 C 235.59 377.71 244.16 378.28 250.00 378.00 C 255.83 377.72 261.90 378.29 267.00 378.00
C 270.78 377.78 275.01 378.77 278.00 379.00
C 285.64 378.44 289.39 378.86 297.25 378.61 C 305.10 378.35 307.27 379.58 316.99 378.99 C 326.71 378.41 339.48 378.53 348.99 378.99 C 358.50 379.45 359.20 378.22 366.92 378.94 C 374.64 379.65 378.49 377.56 385.98 378.02 C 393.46 378.49 396.92 379.19 405.00 379.00 C 413.08 378.81 413.60 379.28 422.92 378.93 C 432.24 378.58 446.30 378.63 455.25 378.61 C 464.20 378.58 467.27 379.25 475.00 379.00 C 482.73 378.75 487.50 378.64 494.92 378.94 C 502.34 379.23 507.80 378.21 515.00 378.00 C 522.19 377.79 529.10 379.46 535.75 378.80 C 542.41 378.14 547.71 378.73 554.00 379.00 C 560.29 379.27 566.57 377.81 572.00 379.00 C 577.43 380.19 581.70 377.40 586.77 378.21 C 591.84 379.03 598.96 377.80 604.97 378.02 C 610.99 378.24 616.75 378.46 622.75 378.20 C 628.76 377.93 634.59 378.62 641.00 378.00 C 647.41 377.38 657.40 378.53 663.78 378.78 C 670.16 379.03 675.96 377.57 682.00 379.00 C 688.04 380.43 695.45 376.17 700.97 378.02 C 706.49 379.87 713.47 376.09 718.78 378.22 C 724.09 380.35 735.41 374.98 739.00 378.00
C 743.67 381.93 736.06 396.54 741.00 400.00
C 745.55 401.13 751.30 399.69 756.00 400.00
C 751.99 397.69 745.83 399.65 741.00 399.00
C 741.00 391.67 741.00 384.33 741.00 377.00
C 563.33 377.00 385.66 377.00 208.00 377.00
C 208.00 385.86 208.00 395.18 208.00 404.00 C 208.00 412.82 208.00 421.25 208.00 430.00 C 208.00 438.75 208.00 447.26 208.00 456.00 C 208.00 464.74 208.00 473.22 208.00 482.00 C 208.00 490.78 207.99 500.23 208.00 509.00 C 208.01 517.77 207.99 526.28 208.00 535.00 C 208.01 543.72 207.97 552.30 208.00 561.00 C 208.03 569.70 207.94 578.29 208.00 587.00 C 208.06 595.71 207.87 605.36 208.00 614.00 C 208.13 622.64 207.69 631.59 208.00 640.00 C 208.31 648.41 207.31 657.99 208.00 666.00 C 208.69 674.01 206.47 684.83 208.00 692.00 C 209.53 699.17 204.14 712.29 209.00 717.00 Z"/>
</g>
<g fill="#00C5FF" fill-opacity="0.01" stroke="None">
<path d="
M 278.00 379.00 
C 275.01 378.77 270.78 377.78 267.00 378.00
C 270.72 378.46 273.44 379.34 278.00 379.00 Z"/>
</g>
<g fill="#199AD5" fill-opacity="0.15" stroke="None">
<path d="
M 741.00 400.00 
C 736.06 396.54 743.67 381.93 739.00 378.00
C 740.43 383.34 736.22 398.81 741.00 400.00 Z"/>
</g>
<g fill="#1B9DE3" fill-opacity="0.04" stroke="None">
<path d="
M 209.00 717.00 
C 209.00 717.00 209.99 716.94 210.00 717.00
C 210.80 708.20 209.63 698.80 210.00 690.00 C 210.37 681.20 209.83 672.77 210.00 664.00 C 210.17 655.23 209.93 646.80 210.00 638.00 C 210.07 629.20 209.96 619.79 210.00 611.00 C 210.04 602.21 209.98 593.76 210.00 585.00 C 210.02 576.24 209.99 567.78 210.00 559.00 C 210.01 550.22 209.98 540.77 210.00 532.00 C 210.02 523.23 209.96 514.70 210.00 506.00 C 210.04 497.30 209.91 488.65 210.00 480.00 C 210.09 471.35 209.82 461.47 210.00 453.00 C 210.18 444.53 209.58 435.02 210.00 427.00 C 210.42 418.98 209.06 408.15 210.00 401.00 C 210.94 393.85 208.00 381.76 210.00 379.00
C 204.44 386.67 210.85 402.01 209.00 412.00 C 207.15 421.99 209.83 435.28 209.00 446.00 C 208.17 456.72 209.37 468.94 209.00 480.00 C 208.63 491.06 209.16 502.79 209.00 514.00 C 208.84 525.21 209.06 536.73 209.00 548.00 C 208.94 559.27 208.99 570.71 209.00 582.00 C 209.01 593.29 208.93 604.71 209.00 616.00 C 209.07 627.29 208.81 638.75 209.00 650.00 C 209.19 661.25 208.57 672.84 209.00 684.00 C 209.43 695.17 208.00 705.94 209.00 717.00 Z"/>
</g>
<g fill="#109CE0" fill-opacity="0.02" stroke="None">
<path d="
M 146.00 523.00 
C 148.71 494.16 147.17 461.16 145.00 433.00
C 144.40 462.88 145.91 493.88 146.00 523.00 Z"/>
</g>
<g fill="#10BEA3" fill-opacity="0.99" stroke="None">
<path d="
M 735.00 436.00 
C 735.08 435.98 726.72 440.14 723.00 439.00 C 719.28 437.86 718.82 440.11 715.98 440.98 C 713.13 441.84 710.87 440.01 712.00 440.00
C 664.89 452.58 634.65 500.26 597.75 533.75 C 560.85 567.24 529.75 603.96 492.75 638.75 C 455.75 673.54 414.12 713.61 411.00 766.00
C 411.58 771.98 411.57 779.09 411.00 785.00
C 411.45 789.09 410.91 792.39 409.00 794.00
C 411.43 793.17 411.26 794.92 412.00 796.00
C 415.06 800.44 415.52 807.67 416.00 813.00
C 416.94 816.10 418.42 819.86 419.00 823.00
C 419.24 824.28 420.37 826.78 418.00 828.00
C 418.77 830.13 421.05 831.61 422.00 829.00
C 435.64 863.32 467.41 888.87 502.00 899.00
C 502.90 899.06 511.44 897.33 510.00 900.00
C 509.79 900.39 510.00 901.00 510.00 901.00
C 512.16 902.14 514.62 901.64 517.00 902.00
C 518.00 901.96 519.20 901.50 521.00 901.00 C 522.81 900.51 523.77 902.95 524.00 903.00
C 551.60 904.50 577.53 899.61 601.00 884.00
C 611.33 873.03 627.79 858.40 641.00 847.00
C 660.82 826.99 683.43 807.52 702.00 786.00
C 715.20 770.70 730.66 756.30 745.25 742.25 C 759.83 728.20 773.12 711.37 789.00 699.00
C 789.20 698.68 789.68 698.20 790.00 698.00
C 802.33 682.17 816.92 669.81 831.75 655.75 C 846.58 641.69 856.81 622.63 867.00 607.00
C 875.15 585.45 877.24 561.21 873.00 538.00
C 873.22 538.48 870.17 536.45 870.07 533.93 C 869.97 531.40 870.12 528.57 870.00 527.00
C 869.51 525.38 869.49 523.60 869.00 522.00
C 869.12 522.20 866.88 522.60 866.23 520.76 C 865.58 518.93 866.14 516.81 866.00 516.00
C 849.86 478.16 816.95 447.92 776.00 439.00
C 771.45 438.97 769.59 438.42 766.00 437.00
C 755.24 435.29 745.59 435.43 735.00 436.00
M 649.00 791.00 
C 639.58 794.09 634.33 807.63 625.75 813.75 C 617.18 819.87 611.08 829.64 602.75 836.75 C 594.43 843.86 587.78 852.57 577.75 857.75 C 567.73 862.94 554.61 868.08 543.00 869.00
C 540.91 869.87 531.00 872.30 525.00 871.00 C 519.00 869.70 520.85 869.61 517.00 868.00
C 467.73 858.32 434.35 805.53 447.00 756.00
C 447.98 727.17 476.20 705.47 496.25 685.25 C 516.29 665.02 535.26 642.58 557.00 624.00
C 563.90 617.11 573.76 600.42 582.25 609.75 C 590.74 619.09 598.87 625.95 607.25 634.75 C 615.63 643.55 623.94 651.17 632.25 659.75 C 640.56 668.34 649.03 676.22 657.25 684.75 C 665.47 693.28 674.19 701.14 682.25 709.75 C 690.31 718.36 700.63 725.92 706.00 736.00
C 686.59 753.25 667.92 775.91 649.00 791.00 Z"/>
</g>
<g fill="#12A68D" fill-opacity="0.71" stroke="None">
<path d="
M 712.00 440.00 
C 710.87 440.01 713.13 441.84 715.98 440.98 C 718.82 440.11 719.28 437.86 723.00 439.00 C 726.72 440.14 735.08 435.98 735.00 436.00
C 727.19 436.42 719.40 438.02 712.00 440.00 Z"/>
</g>
<g fill="#14A58E" fill-opacity="0.71" stroke="None">
<path d="
M 776.00 439.00 
C 772.64 438.27 769.45 437.55 766.00 437.00
C 769.59 438.42 771.45 438.97 776.00 439.00 Z"/>
</g>
<g fill="#0E97E1" fill-opacity="0.98" stroke="None">
<path d="
M 368.00 522.00 
C 368.12 502.41 367.88 479.54 368.00 460.00
C 366.07 440.09 340.00 441.72 325.00 444.00 C 310.00 446.28 283.49 434.86 275.31 453.31 C 267.12 471.75 276.76 492.70 273.00 514.00 C 269.24 535.30 293.97 541.89 312.00 538.00 C 330.03 534.11 353.19 545.23 367.00 530.00
C 365.97 527.52 367.59 524.77 368.00 522.00 Z"/>
</g>
<g fill="#0E97E0" fill-opacity="0.98" stroke="None">
<path d="
M 448.00 443.00 
C 428.57 442.83 425.35 464.62 428.00 480.00 C 430.65 495.38 422.24 520.12 432.75 532.25 C 443.27 544.38 466.96 536.91 481.00 538.00 C 495.04 539.09 518.10 543.00 522.67 524.67 C 527.24 506.34 518.81 489.21 523.00 469.00 C 527.19 448.79 507.94 441.62 491.00 444.00 C 474.06 446.38 463.21 443.13 448.00 443.00 Z"/>
</g>
<g fill="#0096DD" fill-opacity="0.56" stroke="None">
<path d="
M 368.00 522.00 
C 370.76 503.46 370.50 478.34 368.00 460.00
C 367.88 479.54 368.12 502.41 368.00 522.00 Z"/>
</g>
<g fill="#129981" fill-opacity="0.68" stroke="None">
<path d="
M 869.00 522.00 
C 868.32 519.77 866.80 517.88 866.00 516.00
C 866.14 516.81 865.58 518.93 866.23 520.76 C 866.88 522.60 869.12 522.20 869.00 522.00 Z"/>
</g>
<g fill="#00BEDF" fill-opacity="0.01" stroke="None">
<path d="
M 273.00 525.00 
C 272.23 524.23 274.79 526.79 273.00 525.00 Z"/>
</g>
<g fill="#0EA289" fill-opacity="0.68" stroke="None">
<path d="
M 873.00 538.00 
C 872.29 534.10 871.11 530.72 870.00 527.00
C 870.12 528.57 869.97 531.40 870.07 533.93 C 870.17 536.45 873.22 538.48 873.00 538.00 Z"/>
</g>
<g fill="#006363" fill-opacity="0.00" stroke="None">
<path d="
M 274.00 529.00 
C 272.34 527.34 274.61 529.61 274.00 529.00 Z"/>
</g>
<g fill="#0499E4" fill-opacity="0.02" stroke="None">
<path d="
M 145.00 555.00 
C 145.39 551.03 145.30 546.01 145.00 542.00
C 144.87 546.32 145.00 550.67 145.00 555.00 Z"/>
</g>
<g fill="#00B6EE" fill-opacity="0.01" stroke="None">
<path d="
M 145.00 572.00 
C 145.07 568.94 145.31 564.23 145.00 561.00
C 145.00 564.63 144.73 568.38 145.00 572.00 Z"/>
</g>
<g fill="#0D98DB" fill-opacity="0.02" stroke="None">
<path d="
M 146.00 657.00 
C 146.00 631.13 148.63 603.72 146.00 578.00
C 146.17 602.36 140.70 632.85 146.00 657.00 Z"/>
</g>
<g fill="#1899E1" fill-opacity="0.15" stroke="None">
<path d="
M 288.00 584.00 
C 309.88 582.39 332.09 585.21 354.00 584.00
C 344.06 581.94 331.79 583.07 321.00 583.00 C 310.21 582.93 298.03 582.13 288.00 584.00 Z"/>
</g>
<g fill="#00FFFF" fill-opacity="0.00" stroke="None">
<path d="
M 282.00 585.00 
C 282.24 584.75 283.00 585.00 283.00 585.00
C 283.54 584.95 279.63 583.37 282.00 585.00 Z"/>
</g>
<g fill="#0984CD" fill-opacity="0.90" stroke="None">
<path d="
M 283.00 585.00 
C 283.00 585.00 282.24 584.75 282.00 585.00
C 279.16 587.97 277.48 588.92 276.00 592.00
C 284.05 583.58 298.03 584.27 311.00 585.00 C 323.97 585.73 341.54 584.07 354.00 584.00
C 332.09 585.21 309.88 582.39 288.00 584.00
C 286.02 584.15 284.72 583.97 283.00 585.00 Z"/>
</g>
<g fill="#0E97E2" fill-opacity="0.99" stroke="None">
<path d="
M 276.00 592.00 
C 275.18 593.70 274.62 594.99 274.00 597.00
C 273.71 607.09 274.96 620.19 275.00 631.00 C 275.04 641.81 273.29 655.66 275.00 665.00
C 277.00 669.81 280.49 674.49 286.00 676.00
C 285.49 675.47 299.49 674.02 305.00 675.00 C 310.51 675.98 323.11 673.53 329.00 675.00 C 334.89 676.47 348.86 671.70 353.00 676.00
C 361.01 675.70 367.71 667.74 368.00 660.00
C 367.89 640.73 368.12 618.18 368.00 599.00
C 366.13 590.90 362.34 585.73 354.00 584.00
C 341.54 584.07 323.97 585.73 311.00 585.00 C 298.03 584.27 284.05 583.58 276.00 592.00 Z"/>
</g>
<g fill="#0D7FCA" fill-opacity="0.95" stroke="None">
<path d="
M 273.00 600.00 
C 272.83 609.45 274.12 620.75 274.00 631.00 C 273.88 641.25 272.74 652.81 274.00 663.00
C 274.15 664.20 274.69 664.24 275.00 665.00
C 273.29 655.66 275.04 641.81 275.00 631.00 C 274.96 620.19 273.71 607.09 274.00 597.00
C 273.64 598.18 273.19 598.76 273.00 600.00 Z"/>
</g>
<g fill="#087EC6" fill-opacity="0.92" stroke="None">
<path d="
M 368.00 660.00 
C 368.05 658.67 368.00 657.33 368.00 656.00
C 368.00 638.85 369.07 620.32 369.00 604.00
C 368.81 602.13 368.40 600.74 368.00 599.00
C 368.12 618.18 367.89 640.73 368.00 660.00 Z"/>
</g>
<g fill="#1193D8" fill-opacity="0.30" stroke="None">
<path d="
M 274.00 663.00 
C 272.74 652.81 273.88 641.25 274.00 631.00 C 274.12 620.75 272.83 609.45 273.00 600.00
C 271.91 607.10 273.37 615.93 273.00 623.00 C 272.63 630.07 272.91 639.35 273.00 646.00 C 273.09 652.65 271.67 661.45 274.00 663.00 Z"/>
</g>
<g fill="#229BDB" fill-opacity="0.02" stroke="None">
<path d="
M 368.00 656.00 
C 370.11 640.50 370.65 620.32 369.00 604.00
C 369.07 620.32 368.00 638.85 368.00 656.00 Z"/>
</g>
<g fill="#10A385" fill-opacity="0.93" stroke="None">
<path d="
M 557.00 624.00 
C 560.01 621.43 563.04 618.53 566.00 616.00
C 569.52 612.99 573.32 609.75 576.00 606.00
C 578.96 608.21 581.90 611.02 584.00 614.00
C 587.19 617.16 590.64 621.10 594.00 624.00
C 598.83 628.17 603.21 632.66 607.75 637.25 C 612.30 641.83 617.21 646.66 621.75 651.25 C 626.30 655.83 630.74 660.16 635.25 664.75 C 639.75 669.34 644.83 674.16 649.25 678.75 C 653.66 683.35 658.56 687.64 662.75 692.25 C 666.94 696.85 673.00 701.63 676.75 706.25 C 680.50 710.87 687.59 715.09 690.25 719.75 C 692.90 724.41 704.00 728.98 704.00 734.00
C 704.00 736.67 697.98 740.08 696.70 742.70 C 695.42 745.32 690.06 748.78 688.00 751.00
C 676.21 763.76 663.20 780.04 649.00 790.00
C 648.80 790.40 649.00 791.00 649.00 791.00
C 667.92 775.91 686.59 753.25 706.00 736.00
C 700.63 725.92 690.31 718.36 682.25 709.75 C 674.19 701.14 665.47 693.28 657.25 684.75 C 649.03 676.22 640.56 668.34 632.25 659.75 C 623.94 651.17 615.63 643.55 607.25 634.75 C 598.87 625.95 590.74 619.09 582.25 609.75 C 573.76 600.42 563.90 617.11 557.00 624.00 Z"/>
</g>
<g fill="#18C8AC" fill-opacity="0.05" stroke="None">
<path d="
M 566.00 616.00 
C 565.52 616.51 565.41 617.52 565.00 618.00
C 568.74 614.54 573.07 611.17 576.00 607.00
C 579.11 608.73 580.92 612.33 584.00 614.00
C 581.90 611.02 578.96 608.21 576.00 606.00
C 573.32 609.75 569.52 612.99 566.00 616.00 Z"/>
</g>
<g fill="#000000" fill-opacity="0.00" stroke="None">
<path d="
M 565.00 618.00 
C 545.23 641.24 521.58 660.07 499.92 682.92 C 478.26 705.77 455.33 723.39 447.00 756.00
C 434.35 805.53 467.73 858.32 517.00 868.00
C 524.98 869.57 534.63 869.66 543.00 869.00
C 554.61 868.08 567.73 862.94 577.75 857.75 C 587.78 852.57 594.43 843.86 602.75 836.75 C 611.08 829.64 617.18 819.87 625.75 813.75 C 634.33 807.63 639.58 794.09 649.00 791.00
C 649.00 791.00 648.80 790.40 649.00 790.00
C 652.83 782.17 662.74 777.07 668.25 770.25 C 673.75 763.42 681.63 756.89 688.00 751.00
C 690.06 748.78 695.42 745.32 696.70 742.70 C 697.98 740.08 704.00 736.67 704.00 734.00
C 696.03 729.03 691.35 717.54 682.00 716.00
C 683.12 710.33 672.91 704.14 667.75 698.25 C 662.59 692.36 655.42 686.13 649.75 680.25 C 644.09 674.36 637.71 668.05 631.75 662.25 C 625.80 656.45 619.96 649.84 613.75 644.25 C 607.54 638.66 602.08 629.58 594.00 628.00
C 596.39 626.84 595.18 625.79 594.00 624.00
C 590.64 621.10 587.19 617.16 584.00 614.00
C 580.92 612.33 579.11 608.73 576.00 607.00
C 573.07 611.17 568.74 614.54 565.00 618.00 Z"/>
</g>
<g fill="#13A387" fill-opacity="0.83" stroke="None">
<path d="
M 790.00 698.00 
C 800.62 691.43 807.75 679.50 817.25 671.25 C 826.74 662.99 835.74 652.48 845.00 644.00
C 854.89 633.41 861.90 620.47 867.00 607.00
C 856.81 622.63 846.58 641.69 831.75 655.75 C 816.92 669.81 802.33 682.17 790.00 698.00 Z"/>
</g>
<g fill="#11A58A" fill-opacity="0.67" stroke="None">
<path d="
M 557.00 624.00 
C 535.26 642.58 516.29 665.02 496.25 685.25 C 476.20 705.47 447.98 727.17 447.00 756.00
C 455.33 723.39 478.26 705.77 499.92 682.92 C 521.58 660.07 545.23 641.24 565.00 618.00
C 565.41 617.52 565.52 616.51 566.00 616.00
C 563.04 618.53 560.01 621.43 557.00 624.00 Z"/>
</g>
<g fill="#1ABCA3" fill-opacity="0.09" stroke="None">
<path d="
M 704.00 734.00 
C 704.00 728.98 692.90 724.41 690.25 719.75 C 687.59 715.09 680.50 710.87 676.75 706.25 C 673.00 701.63 666.94 696.85 662.75 692.25 C 658.56 687.64 653.66 683.35 649.25 678.75 C 644.83 674.16 639.75 669.34 635.25 664.75 C 630.74 660.16 626.30 655.83 621.75 651.25 C 617.21 646.66 612.30 641.83 607.75 637.25 C 603.21 632.66 598.83 628.17 594.00 624.00
C 595.18 625.79 596.39 626.84 594.00 628.00
C 602.08 629.58 607.54 638.66 613.75 644.25 C 619.96 649.84 625.80 656.45 631.75 662.25 C 637.71 668.05 644.09 674.36 649.75 680.25 C 655.42 686.13 662.59 692.36 667.75 698.25 C 672.91 704.14 683.12 710.33 682.00 716.00
C 691.35 717.54 696.03 729.03 704.00 734.00 Z"/>
</g>
<g fill="#11A489" fill-opacity="0.66" stroke="None">
<path d="
M 790.00 698.00 
C 789.68 698.20 789.20 698.68 789.00 699.00
C 781.28 711.48 767.09 720.20 757.25 731.25 C 747.40 742.30 735.44 753.56 725.00 764.00
C 752.81 736.19 782.81 709.78 808.00 682.00
C 818.40 670.52 830.11 659.89 841.00 649.00
C 842.30 647.48 843.59 645.51 845.00 644.00
C 835.74 652.48 826.74 662.99 817.25 671.25 C 807.75 679.50 800.62 691.43 790.00 698.00 Z"/>
</g>
<g fill="#1DBA9E" fill-opacity="0.04" stroke="None">
<path d="
M 808.00 682.00 
C 819.12 671.51 831.01 660.69 841.00 649.00
C 830.11 659.89 818.40 670.52 808.00 682.00 Z"/>
</g>
<g fill="#139AE4" fill-opacity="0.02" stroke="None">
<path d="
M 145.00 706.00 
C 146.91 691.68 146.00 675.15 146.00 660.00
C 142.96 673.85 145.22 691.19 145.00 706.00 Z"/>
</g>
<g fill="#0A7CC5" fill-opacity="0.97" stroke="None">
<path d="
M 286.00 676.00 
C 286.47 676.13 287.50 676.00 288.00 676.00
C 309.33 676.00 330.67 675.99 352.00 676.00
C 352.00 676.00 352.50 676.02 353.00 676.00
C 348.86 671.70 334.89 676.47 329.00 675.00 C 323.11 673.53 310.51 675.98 305.00 675.00 C 299.49 674.02 285.49 675.47 286.00 676.00 Z"/>
</g>
<g fill="#0C97D9" fill-opacity="0.11" stroke="None">
<path d="
M 352.00 676.00 
C 330.67 675.99 309.33 676.00 288.00 676.00
C 293.74 678.58 302.52 676.00 309.00 677.00 C 315.48 678.00 325.00 675.48 331.00 677.00 C 336.99 678.53 338.28 676.05 346.00 678.00
C 343.48 678.47 339.78 676.97 338.00 679.00
C 343.00 679.00 348.00 679.00 353.00 679.00
C 352.27 678.21 352.40 676.82 352.00 676.00 Z"/>
</g>
<g fill="#00D5FF" fill-opacity="0.00" stroke="None">
<path d="
M 305.00 678.00 
C 300.49 678.59 294.75 676.78 291.00 679.00
C 295.51 678.41 301.25 680.22 305.00 678.00 Z"/>
</g>
<g fill="#00B0FF" fill-opacity="0.01" stroke="None">
<path d="
M 329.00 678.00 
C 322.82 678.63 315.42 676.72 310.00 679.00
C 316.18 678.37 323.58 680.28 329.00 678.00 Z"/>
</g>
<g fill="#109F82" fill-opacity="1.00" stroke="None">
<path d="
M 702.00 786.00 
C 709.46 778.62 717.63 771.37 725.00 764.00
C 735.44 753.56 747.40 742.30 757.25 731.25 C 767.09 720.20 781.28 711.48 789.00 699.00
C 773.12 711.37 759.83 728.20 745.25 742.25 C 730.66 756.30 715.20 770.70 702.00 786.00 Z"/>
</g>
<g fill="#068CD3" fill-opacity="0.68" stroke="None">
<path d="
M 377.00 738.00 
C 377.33 736.72 378.65 735.51 378.00 734.00
C 369.04 733.47 359.94 734.71 351.00 734.00
C 317.88 731.37 287.46 735.58 255.00 733.00
C 248.95 733.11 241.08 733.59 235.00 733.00
C 232.09 733.00 228.88 733.38 226.00 733.00
C 227.81 736.99 237.52 734.52 244.00 735.00 C 250.48 735.48 259.05 734.78 266.00 735.00 C 272.95 735.22 280.84 734.90 288.00 735.00 C 295.16 735.10 302.75 734.96 310.00 735.00 C 317.25 735.05 324.70 734.98 332.00 735.00 C 339.30 735.02 346.69 734.99 354.00 735.00 C 361.31 735.01 368.68 734.99 376.00 735.00
C 375.23 736.23 376.83 737.40 377.00 738.00 Z"/>
</g>
<g fill="#009AFD" fill-opacity="0.01" stroke="None">
<path d="
M 255.00 733.00 
C 248.43 732.48 241.60 733.00 235.00 733.00
C 241.08 733.59 248.95 733.11 255.00 733.00 Z"/>
</g>
<g fill="#109DDF" fill-opacity="0.03" stroke="None">
<path d="
M 351.00 734.00 
C 359.94 734.71 369.04 733.47 378.00 734.00
C 376.58 730.71 367.18 734.23 364.00 733.00 C 360.82 731.77 353.70 733.95 351.00 734.00 Z"/>
</g>
<g fill="#13CAB0" fill-opacity="0.03" stroke="None">
<path d="
M 649.00 790.00 
C 663.20 780.04 676.21 763.76 688.00 751.00
C 681.63 756.89 673.75 763.42 668.25 770.25 C 662.74 777.07 652.83 782.17 649.00 790.00 Z"/>
</g>
<g fill="#0FA68C" fill-opacity="0.55" stroke="None">
<path d="
M 702.00 786.00 
C 683.43 807.52 660.82 826.99 641.00 847.00
C 638.26 849.77 635.49 853.08 633.00 856.00
C 663.45 825.55 694.45 794.55 725.00 764.00
C 717.63 771.37 709.46 778.62 702.00 786.00 Z"/>
</g>
<g fill="#10967F" fill-opacity="0.92" stroke="None">
<path d="
M 411.00 769.00 
C 411.26 773.30 411.00 777.69 411.00 782.00
C 411.00 783.00 411.00 784.00 411.00 785.00
C 411.57 779.09 411.58 771.98 411.00 766.00
C 410.91 767.50 410.92 767.58 411.00 769.00 Z"/>
</g>
<g fill="#14C4AF" fill-opacity="0.04" stroke="None">
<path d="
M 411.00 782.00 
C 411.00 777.69 411.26 773.30 411.00 769.00
C 410.69 773.12 410.05 777.68 411.00 782.00 Z"/>
</g>
<g fill="#00A9EB" fill-opacity="0.01" stroke="None">
<path d="
M 306.00 797.00 
C 304.13 797.39 301.14 796.13 300.00 798.00
C 308.97 797.41 317.89 799.54 326.00 797.00
C 320.35 796.75 314.65 797.34 309.00 797.00
C 307.44 796.91 307.50 796.87 306.00 797.00 Z"/>
</g>
<g fill="#000000" fill-opacity="0.00" stroke="None">
<path d="
M 373.00 796.00 
C 371.34 794.34 373.61 796.61 373.00 796.00 Z"/>
</g>
<g fill="#12A58F" fill-opacity="0.61" stroke="None">
<path d="
M 416.00 813.00 
C 415.52 807.67 415.06 800.44 412.00 796.00
C 413.91 799.00 410.45 811.42 414.00 805.00
C 413.43 807.94 415.31 810.74 416.00 813.00 Z"/>
</g>
<g fill="#00AFFF" fill-opacity="0.01" stroke="None">
<path d="
M 283.00 797.00 
C 276.49 797.63 268.75 795.72 263.00 798.00
C 269.51 797.37 277.25 799.28 283.00 797.00 Z"/>
</g>
<g fill="#00BCFC" fill-opacity="0.01" stroke="None">
<path d="
M 299.00 797.00 
C 294.16 797.60 288.09 795.76 284.00 798.00
C 288.84 797.40 294.91 799.24 299.00 797.00 Z"/>
</g>
<g fill="#017574" fill-opacity="0.02" stroke="None">
<path d="
M 418.00 828.00 
C 420.37 826.78 419.24 824.28 419.00 823.00
C 417.46 821.59 416.60 826.54 418.00 828.00 Z"/>
</g>
<g fill="#119E83" fill-opacity="0.73" stroke="None">
<path d="
M 601.00 884.00 
C 613.32 875.80 624.05 866.47 633.00 856.00
C 635.49 853.08 638.26 849.77 641.00 847.00
C 627.79 858.40 611.33 873.03 601.00 884.00 Z"/>
</g>
<g fill="#14AA8D" fill-opacity="0.62" stroke="None">
<path d="
M 543.00 869.00 
C 534.63 869.66 524.98 869.57 517.00 868.00
C 520.85 869.61 519.00 869.70 525.00 871.00 C 531.00 872.30 540.91 869.87 543.00 869.00 Z"/>
</g>
<g fill="#00BF80" fill-opacity="0.02" stroke="None">
<path d="
M 483.00 893.00 
C 482.19 892.18 483.74 893.75 483.00 893.00 Z"/>
</g>
<g fill="#129B80" fill-opacity="0.80" stroke="None">
<path d="
M 502.00 899.00 
C 503.56 899.46 504.28 899.87 506.00 900.00
C 506.92 900.07 509.23 899.53 510.00 900.00
C 511.44 897.33 502.90 899.06 502.00 899.00 Z"/>
</g>
<g fill="#029288" fill-opacity="0.05" stroke="None">
<path d="
M 510.00 901.00 
C 510.00 901.00 509.79 900.39 510.00 900.00
C 509.23 899.53 506.92 900.07 506.00 900.00
C 505.15 901.41 503.15 901.72 504.00 904.00
C 505.74 901.44 507.99 902.92 510.00 901.00 Z"/>
</g>
<g fill="#12A285" fill-opacity="0.65" stroke="None">
<path d="
M 517.00 902.00 
C 519.47 902.38 521.37 902.86 524.00 903.00
C 523.77 902.95 522.81 900.51 521.00 901.00 C 519.20 901.50 518.00 901.96 517.00 902.00 Z"/>
</g>
</svg>